<svg width="135" height="157" viewBox="0 0 135 157" fill="none" xmlns="http://www.w3.org/2000/svg">
<path d="M20.4415 99.0747C20.4415 105.368 16.0569 110.52 10.7003 110.52C5.34365 110.52 0.953979 105.373 0.953979 99.0747V61.6192C0.953979 55.3263 5.33854 50.1743 10.7003 50.1743C16.062 50.1743 20.4415 55.3263 20.4415 61.6192V99.0747ZM134.046 99.0747C134.046 105.368 129.662 110.52 124.3 110.52C118.938 110.52 114.553 105.373 114.553 99.0747V61.6192C114.553 55.3263 118.938 50.1743 124.3 50.1743C129.662 50.1743 134.046 55.3263 134.046 61.6192V99.0747ZM88.8038 13.9723L95.0557 2.75252C95.5674 1.83672 95.4139 0.767442 94.7232 0.383729C94.0325 1.5887e-05 93.04 0.429774 92.5335 1.34557L86.1383 12.8263C80.1302 10.4897 73.7366 9.30264 67.2903 9.3268C60.4858 9.3268 54.0496 10.6058 48.3093 12.8825L41.8834 1.35069C41.3717 0.434891 40.3843 1.61539e-05 39.6936 0.388845C39.003 0.777674 38.8495 1.84184 39.3611 2.75763L45.6437 14.0337C32.5719 20.1731 23.767 31.6998 23.767 44.9098C23.767 46.2502 23.8642 47.5753 24.0382 48.8799H110.548C110.727 47.5753 110.819 46.2553 110.819 44.9098C110.819 31.6589 101.957 20.1015 88.814 13.9774L88.8038 13.9723ZM47.5316 33.557C47.0317 33.557 46.5368 33.4585 46.075 33.2672C45.6131 33.076 45.1935 32.7956 44.8401 32.4421C44.4866 32.0887 44.2062 31.669 44.0149 31.2072C43.8236 30.7454 43.7252 30.2504 43.7252 29.7506C43.7252 29.2507 43.8236 28.7557 44.0149 28.2939C44.2062 27.8321 44.4866 27.4125 44.8401 27.059C45.1935 26.7055 45.6131 26.4252 46.075 26.2339C46.5368 26.0426 47.0317 25.9441 47.5316 25.9441C48.5411 25.9441 49.5093 26.3452 50.2232 27.059C50.937 27.7728 51.338 28.741 51.338 29.7506C51.338 30.7601 50.937 31.7283 50.2232 32.4421C49.5093 33.156 48.5411 33.557 47.5316 33.557ZM87.2536 33.557C86.7537 33.557 86.2587 33.4585 85.7969 33.2672C85.3351 33.076 84.9155 32.7956 84.562 32.4421C84.2086 32.0887 83.9282 31.669 83.7369 31.2072C83.5456 30.7454 83.4472 30.2504 83.4472 29.7506C83.4472 29.2507 83.5456 28.7557 83.7369 28.2939C83.9282 27.8321 84.2086 27.4125 84.562 27.059C84.9155 26.7055 85.3351 26.4252 85.7969 26.2339C86.2587 26.0426 86.7537 25.9441 87.2536 25.9441C88.2631 25.9441 89.2313 26.3452 89.9451 27.059C90.659 27.7728 91.06 28.741 91.06 29.7506C91.06 30.7601 90.659 31.7283 89.9451 32.4421C89.2313 33.156 88.2631 33.557 87.2536 33.557ZM23.7568 52.6608V116.465H23.7926C24.2377 121.852 29.1953 126.134 35.2016 126.134H99.3636C105.365 126.134 110.322 121.852 110.773 116.465H110.808V52.6608H23.7619H23.7568ZM61.0537 125.817V145.555C61.0537 151.848 56.6691 157 51.3074 157C45.9456 157 41.5662 151.848 41.5662 145.555V125.832L61.0537 125.817ZM93.5311 125.807V145.555C93.5311 151.848 89.1466 157 83.7848 157C78.4231 157 74.0385 151.848 74.0385 145.555V125.807H93.5311Z" fill="white"/>
</svg>
