<svg width="123" height="150" viewBox="0 0 123 150" fill="none" xmlns="http://www.w3.org/2000/svg">
<path d="M112.325 131.25C106.1 140.55 99.5001 149.625 89.4501 149.775C79.4001 150 76.1751 143.85 64.7751 143.85C53.3001 143.85 49.7751 149.625 40.2498 150C30.4248 150.375 22.9998 140.1 16.6998 131.025C3.87484 112.5 -5.95016 78.375 7.24983 55.425C13.7748 44.025 25.4748 36.825 38.1498 36.6C47.7501 36.45 56.9001 43.125 62.8251 43.125C68.6751 43.125 79.7751 35.1 91.4001 36.3C96.2751 36.525 109.925 38.25 118.7 51.15C118.025 51.6 102.425 60.75 102.575 79.725C102.8 102.375 122.45 109.95 122.675 110.025C122.45 110.55 119.525 120.825 112.325 131.25ZM69.5001 11.25C74.9751 5.025 84.0501 0.3 91.5501 0C92.5251 8.775 89.0001 17.625 83.7501 23.925C78.5751 30.3 70.0251 35.25 61.6251 34.575C60.5001 25.95 64.7001 16.95 69.5001 11.25Z" fill="white"/>
</svg>
