<svg xmlns="http://www.w3.org/2000/svg" version="1.1" xmlns:xlink="http://www.w3.org/1999/xlink" width="86" height="86"><svg width="86" height="86" viewBox="0 0 86 86" fill="none" xmlns="http://www.w3.org/2000/svg">
<rect width="86" height="86" rx="43" fill="black"></rect>
<g clip-path="url(#clip0_1_11)">
<path fill-rule="evenodd" clip-rule="evenodd" d="M30.0266 33.3269C28.6966 32.5548 28.6993 30.6332 30.0315 29.8648L40.4989 23.8274C41.1183 23.4702 41.8813 23.4708 42.5002 23.8291L52.9283 29.8664C54.2568 30.6355 54.2594 32.5525 52.9332 33.3253L42.505 39.4019C41.8837 39.7639 41.1159 39.7645 40.494 39.4035L34.2687 35.7896L30.0266 33.3269ZM22 32.6208V51.0375C22 51.6153 22.1423 52.1532 22.4268 52.6511C22.711 53.1487 23.1104 53.5498 23.625 53.8542L39.0719 62.7479C40.1518 63.3696 41.5 62.5902 41.5 61.3441C41.5 60.7651 41.1909 60.2301 40.6894 59.9409L26.2509 51.6147C25.6316 51.2575 25.25 50.597 25.25 49.8821V37.7663C25.25 36.2262 26.9176 35.264 28.2509 36.0348L40.547 43.1428C41.1696 43.5027 41.9375 43.5006 42.5582 43.1374L54.7397 36.0077C56.073 35.2273 57.75 36.1889 57.75 37.7338V44.875C57.75 45.7725 58.4775 46.5 59.375 46.5C60.2725 46.5 61 45.7725 61 44.875V32.6208C61 32.0431 60.8579 31.5052 60.5737 31.0072C60.2892 30.5096 59.8896 30.1086 59.375 29.8042L43.125 20.4333C42.8722 20.2528 42.6104 20.1354 42.3396 20.0813C42.0687 20.0271 41.788 20 41.4973 20C41.2066 20 40.9358 20.0271 40.6848 20.0813C40.4338 20.1354 40.1639 20.2528 39.875 20.4333L23.625 29.8042C23.1104 30.1086 22.711 30.5096 22.4268 31.0072C22.1423 31.5052 22 32.0431 22 32.6208Z" fill="white" stroke="white" stroke-width="1.5"></path>
</g>
<path d="M36.1562 55V47.5098H37.5234V50.2588C37.6797 50.0505 37.8896 49.8877 38.1533 49.7705C38.4202 49.6533 38.7327 49.5947 39.0908 49.5947C39.8005 49.5947 40.3652 49.8454 40.7852 50.3467C41.2083 50.848 41.4199 51.4876 41.4199 52.2656V52.4219C41.4199 53.2031 41.2083 53.8444 40.7852 54.3457C40.362 54.847 39.7972 55.0977 39.0908 55.0977C38.7295 55.0977 38.4056 55.0293 38.1191 54.8926C37.8327 54.7526 37.6276 54.5801 37.5039 54.375H37.4795L37.4453 55H36.1562ZM37.5234 53.2666C37.6146 53.4814 37.7643 53.6719 37.9727 53.8379C38.1842 54.0007 38.4414 54.082 38.7441 54.082C39.1803 54.082 39.501 53.9274 39.7061 53.6182C39.9111 53.3057 40.0137 52.915 40.0137 52.4463V52.2461C40.0137 51.7773 39.9111 51.3883 39.7061 51.0791C39.501 50.7699 39.1787 50.6152 38.7393 50.6152C38.4398 50.6152 38.1842 50.6982 37.9727 50.8643C37.7643 51.027 37.6146 51.2142 37.5234 51.4258V53.2666ZM42.2109 57.0312L42.2158 56.0254C42.3005 56.0514 42.403 56.0742 42.5234 56.0938C42.6471 56.1165 42.7594 56.1279 42.8604 56.1279C43.098 56.1279 43.2982 56.0514 43.4609 55.8984C43.6237 55.7487 43.7799 55.4362 43.9297 54.9609H43.832L41.7324 49.6924H43.1094L44.2812 52.8711C44.3268 52.998 44.3691 53.1266 44.4082 53.2568C44.4473 53.387 44.4782 53.514 44.501 53.6377H44.5303C44.5531 53.514 44.5824 53.3887 44.6182 53.2617C44.6572 53.1315 44.6995 53.0013 44.7451 52.8711L45.8389 49.6924H47.1328L44.833 55.6592C44.6507 56.1312 44.4049 56.4958 44.0957 56.7529C43.7865 57.0133 43.4007 57.1436 42.9385 57.1436C42.7985 57.1436 42.665 57.1322 42.5381 57.1094C42.4144 57.0898 42.3053 57.0638 42.2109 57.0312ZM47.0693 50.6641V49.6924H50.3408V50.6641H47.0693ZM47.9238 53.5107V50.2344V50.0928V48.6084H49.291V53.501C49.291 53.7288 49.335 53.89 49.4229 53.9844C49.5107 54.0788 49.6426 54.126 49.8184 54.126C49.8997 54.126 49.9811 54.1162 50.0625 54.0967C50.1471 54.0771 50.2285 54.0527 50.3066 54.0234V55C50.2253 55.0391 50.1162 55.0732 49.9795 55.1025C49.846 55.1318 49.6995 55.1465 49.54 55.1465C49.0518 55.1465 48.6595 55.0146 48.3633 54.751C48.0703 54.4873 47.9238 54.0739 47.9238 53.5107ZM50.8584 52.4219V52.2656C50.8584 51.4551 51.1107 50.7992 51.6152 50.2979C52.123 49.7965 52.7936 49.5459 53.627 49.5459C54.457 49.5459 55.1243 49.7965 55.6289 50.2979C56.1367 50.7992 56.3906 51.4551 56.3906 52.2656V52.4219C56.3906 53.2357 56.1367 53.8932 55.6289 54.3945C55.1243 54.8958 54.457 55.1465 53.627 55.1465C52.7936 55.1465 52.123 54.8958 51.6152 54.3945C51.1107 53.8932 50.8584 53.2357 50.8584 52.4219ZM52.2646 52.2412V52.4512C52.2646 52.946 52.3802 53.3496 52.6113 53.6621C52.8424 53.9714 53.181 54.126 53.627 54.126C54.0697 54.126 54.4066 53.9714 54.6377 53.6621C54.8721 53.3496 54.9893 52.946 54.9893 52.4512V52.2412C54.9893 51.7497 54.8721 51.3477 54.6377 51.0352C54.4033 50.7227 54.0664 50.5664 53.627 50.5664C53.1842 50.5664 52.8457 50.7227 52.6113 51.0352C52.3802 51.3477 52.2646 51.7497 52.2646 52.2412ZM56.6494 49.6924H58.0361L59.2227 52.9346C59.2682 53.0648 59.304 53.1803 59.3301 53.2812C59.3561 53.3822 59.3773 53.4928 59.3936 53.6133H59.4229C59.4391 53.4896 59.4603 53.3789 59.4863 53.2812C59.5124 53.1803 59.5482 53.0648 59.5938 52.9346L60.7607 49.6924H62.0449L59.9648 55H58.7295L56.6494 49.6924ZM62.3184 52.4219V52.2656C62.3184 51.4616 62.5625 50.8073 63.0508 50.3027C63.5423 49.7982 64.182 49.5459 64.9697 49.5459C65.764 49.5459 66.3809 49.7819 66.8203 50.2539C67.2598 50.7259 67.4795 51.3672 67.4795 52.1777V52.6855H63.2607V51.7822H66.1123L66.1074 51.7139C66.1074 51.4111 66.0163 51.1377 65.834 50.8936C65.6517 50.6462 65.3571 50.5225 64.9502 50.5225C64.5433 50.5225 64.2292 50.6852 64.0078 51.0107C63.7865 51.333 63.6758 51.7432 63.6758 52.2412V52.4463C63.6758 52.9411 63.793 53.3512 64.0273 53.6768C64.265 54.0023 64.6214 54.165 65.0967 54.165C65.4059 54.165 65.6729 54.0951 65.8975 53.9551C66.1253 53.8118 66.3092 53.6442 66.4492 53.4521L67.3672 54.1162C67.2012 54.3929 66.9196 54.6338 66.5225 54.8389C66.1253 55.0439 65.6517 55.1465 65.1016 55.1465C64.2161 55.1465 63.5309 54.8942 63.0459 54.3896C62.5609 53.8851 62.3184 53.2292 62.3184 52.4219ZM68.4805 55V49.6924H69.7695L69.8086 50.3027H69.833C69.9502 50.1009 70.1081 49.9251 70.3066 49.7754C70.5085 49.6257 70.7412 49.5508 71.0049 49.5508C71.0765 49.5508 71.1497 49.5589 71.2246 49.5752C71.2995 49.5915 71.3516 49.6061 71.3809 49.6191V50.7861C71.3158 50.7731 71.249 50.7633 71.1807 50.7568C71.1156 50.7503 71.0423 50.7471 70.9609 50.7471C70.694 50.7471 70.4645 50.8187 70.2725 50.9619C70.0804 51.1019 69.9404 51.2793 69.8525 51.4941V55H68.4805Z" fill="white"></path>
<defs>
<clipPath id="SvgjsClipPath1001">
<rect width="42" height="49" fill="white" transform="translate(21 19)"></rect>
</clipPath>
</defs>
</svg><style>@media (prefers-color-scheme: light) { :root { filter: none; } }
@media (prefers-color-scheme: dark) { :root { filter: none; } }
</style></svg>