<svg xmlns="http://www.w3.org/2000/svg" version="1.1" xmlns:xlink="http://www.w3.org/1999/xlink" width="86" height="86"><svg width="86" height="86" viewBox="0 0 86 86" fill="none" xmlns="http://www.w3.org/2000/svg">
<rect width="86" height="86" rx="43" fill="black"></rect>
<path fill-rule="evenodd" clip-rule="evenodd" d="M25.8039 30.5984C23.848 29.4629 23.852 26.6371 25.811 25.5071L41.2043 16.6286C42.1151 16.1032 43.2372 16.1041 44.1474 16.631L59.4828 25.5094C61.4365 26.6404 61.4403 29.4596 59.49 30.596L44.1544 39.5322C43.2407 40.0646 42.1116 40.0654 41.1971 39.5346L32.0422 34.22L25.8039 30.5984ZM14 29.56V56.6434C14 57.4931 14.2092 58.2841 14.6277 59.0163C15.0456 59.7481 15.633 60.3379 16.3897 60.7856L39.1057 73.8646C40.6938 74.7788 42.6765 73.6327 42.6765 71.8002C42.6765 70.9487 42.2219 70.1619 41.4844 69.7366L20.2513 57.4922C19.3406 56.9669 18.7794 55.9956 18.7794 54.9443V37.1269C18.7794 34.8621 21.2318 33.4471 23.1926 34.5806L41.275 45.0335C42.1906 45.5628 43.3199 45.5597 44.2327 45.0256L62.1466 34.5407C64.1074 33.3931 66.5735 34.8072 66.5735 37.0791V47.5809C66.5735 48.9007 67.6434 49.9706 68.9632 49.9706C70.2831 49.9706 71.3529 48.9007 71.3529 47.5809V29.56C71.3529 28.7104 71.144 27.9194 70.726 27.1871C70.3077 26.4553 69.72 25.8656 68.9632 25.4179L45.0662 11.6373C44.6944 11.3717 44.3094 11.1991 43.9112 11.1195C43.5128 11.0398 43.1 11 42.6725 11C42.245 11 41.8468 11.0398 41.4776 11.1195C41.1085 11.1991 40.7116 11.3717 40.2868 11.6373L16.3897 25.4179C15.633 25.8656 15.0456 26.4553 14.6277 27.1871C14.2092 27.9194 14 28.7104 14 29.56Z" fill="white" stroke="white" stroke-width="1.5"></path>
<path d="M38.1562 62V54.5098H39.5234V57.2588C39.6797 57.0505 39.8896 56.8877 40.1533 56.7705C40.4202 56.6533 40.7327 56.5947 41.0908 56.5947C41.8005 56.5947 42.3652 56.8454 42.7852 57.3467C43.2083 57.848 43.4199 58.4876 43.4199 59.2656V59.4219C43.4199 60.2031 43.2083 60.8444 42.7852 61.3457C42.362 61.847 41.7972 62.0977 41.0908 62.0977C40.7295 62.0977 40.4056 62.0293 40.1191 61.8926C39.8327 61.7526 39.6276 61.5801 39.5039 61.375H39.4795L39.4453 62H38.1562ZM39.5234 60.2666C39.6146 60.4814 39.7643 60.6719 39.9727 60.8379C40.1842 61.0007 40.4414 61.082 40.7441 61.082C41.1803 61.082 41.501 60.9274 41.7061 60.6182C41.9111 60.3057 42.0137 59.915 42.0137 59.4463V59.2461C42.0137 58.7773 41.9111 58.3883 41.7061 58.0791C41.501 57.7699 41.1787 57.6152 40.7393 57.6152C40.4398 57.6152 40.1842 57.6982 39.9727 57.8643C39.7643 58.027 39.6146 58.2142 39.5234 58.4258V60.2666ZM44.2109 64.0312L44.2158 63.0254C44.3005 63.0514 44.403 63.0742 44.5234 63.0938C44.6471 63.1165 44.7594 63.1279 44.8604 63.1279C45.098 63.1279 45.2982 63.0514 45.4609 62.8984C45.6237 62.7487 45.7799 62.4362 45.9297 61.9609H45.832L43.7324 56.6924H45.1094L46.2812 59.8711C46.3268 59.998 46.3691 60.1266 46.4082 60.2568C46.4473 60.387 46.4782 60.514 46.501 60.6377H46.5303C46.5531 60.514 46.5824 60.3887 46.6182 60.2617C46.6572 60.1315 46.6995 60.0013 46.7451 59.8711L47.8389 56.6924H49.1328L46.833 62.6592C46.6507 63.1312 46.4049 63.4958 46.0957 63.7529C45.7865 64.0133 45.4007 64.1436 44.9385 64.1436C44.7985 64.1436 44.665 64.1322 44.5381 64.1094C44.4144 64.0898 44.3053 64.0638 44.2109 64.0312ZM49.0693 57.6641V56.6924H52.3408V57.6641H49.0693ZM49.9238 60.5107V57.2344V57.0928V55.6084H51.291V60.501C51.291 60.7288 51.335 60.89 51.4229 60.9844C51.5107 61.0788 51.6426 61.126 51.8184 61.126C51.8997 61.126 51.9811 61.1162 52.0625 61.0967C52.1471 61.0771 52.2285 61.0527 52.3066 61.0234V62C52.2253 62.0391 52.1162 62.0732 51.9795 62.1025C51.846 62.1318 51.6995 62.1465 51.54 62.1465C51.0518 62.1465 50.6595 62.0146 50.3633 61.751C50.0703 61.4873 49.9238 61.0739 49.9238 60.5107ZM52.8584 59.4219V59.2656C52.8584 58.4551 53.1107 57.7992 53.6152 57.2979C54.123 56.7965 54.7936 56.5459 55.627 56.5459C56.457 56.5459 57.1243 56.7965 57.6289 57.2979C58.1367 57.7992 58.3906 58.4551 58.3906 59.2656V59.4219C58.3906 60.2357 58.1367 60.8932 57.6289 61.3945C57.1243 61.8958 56.457 62.1465 55.627 62.1465C54.7936 62.1465 54.123 61.8958 53.6152 61.3945C53.1107 60.8932 52.8584 60.2357 52.8584 59.4219ZM54.2646 59.2412V59.4512C54.2646 59.946 54.3802 60.3496 54.6113 60.6621C54.8424 60.9714 55.181 61.126 55.627 61.126C56.0697 61.126 56.4066 60.9714 56.6377 60.6621C56.8721 60.3496 56.9893 59.946 56.9893 59.4512V59.2412C56.9893 58.7497 56.8721 58.3477 56.6377 58.0352C56.4033 57.7227 56.0664 57.5664 55.627 57.5664C55.1842 57.5664 54.8457 57.7227 54.6113 58.0352C54.3802 58.3477 54.2646 58.7497 54.2646 59.2412ZM58.6494 56.6924H60.0361L61.2227 59.9346C61.2682 60.0648 61.304 60.1803 61.3301 60.2812C61.3561 60.3822 61.3773 60.4928 61.3936 60.6133H61.4229C61.4391 60.4896 61.4603 60.3789 61.4863 60.2812C61.5124 60.1803 61.5482 60.0648 61.5938 59.9346L62.7607 56.6924H64.0449L61.9648 62H60.7295L58.6494 56.6924ZM64.3184 59.4219V59.2656C64.3184 58.4616 64.5625 57.8073 65.0508 57.3027C65.5423 56.7982 66.182 56.5459 66.9697 56.5459C67.764 56.5459 68.3809 56.7819 68.8203 57.2539C69.2598 57.7259 69.4795 58.3672 69.4795 59.1777V59.6855H65.2607V58.7822H68.1123L68.1074 58.7139C68.1074 58.4111 68.0163 58.1377 67.834 57.8936C67.6517 57.6462 67.3571 57.5225 66.9502 57.5225C66.5433 57.5225 66.2292 57.6852 66.0078 58.0107C65.7865 58.333 65.6758 58.7432 65.6758 59.2412V59.4463C65.6758 59.9411 65.793 60.3512 66.0273 60.6768C66.265 61.0023 66.6214 61.165 67.0967 61.165C67.4059 61.165 67.6729 61.0951 67.8975 60.9551C68.1253 60.8118 68.3092 60.6442 68.4492 60.4521L69.3672 61.1162C69.2012 61.3929 68.9196 61.6338 68.5225 61.8389C68.1253 62.0439 67.6517 62.1465 67.1016 62.1465C66.2161 62.1465 65.5309 61.8942 65.0459 61.3896C64.5609 60.8851 64.3184 60.2292 64.3184 59.4219ZM70.4805 62V56.6924H71.7695L71.8086 57.3027H71.833C71.9502 57.1009 72.1081 56.9251 72.3066 56.7754C72.5085 56.6257 72.7412 56.5508 73.0049 56.5508C73.0765 56.5508 73.1497 56.5589 73.2246 56.5752C73.2995 56.5915 73.3516 56.6061 73.3809 56.6191V57.7861C73.3158 57.7731 73.249 57.7633 73.1807 57.7568C73.1156 57.7503 73.0423 57.7471 72.9609 57.7471C72.694 57.7471 72.4645 57.8187 72.2725 57.9619C72.0804 58.1019 71.9404 58.2793 71.8525 58.4941V62H70.4805Z" fill="white"></path>
</svg><style>@media (prefers-color-scheme: light) { :root { filter: none; } }
@media (prefers-color-scheme: dark) { :root { filter: none; } }
</style></svg>