<svg width="25" height="25" viewBox="0 0 25 25" fill="none" xmlns="http://www.w3.org/2000/svg">
<path fill-rule="evenodd" clip-rule="evenodd" d="M10.4268 1.56476H10.5H14.5H14.5732H14.5732H14.5732C16.3966 1.56473 17.8664 1.56471 19.0223 1.72012C20.2225 1.88148 21.233 2.22667 22.0355 3.02923C22.8381 3.83178 23.1833 4.84228 23.3446 6.04243C23.5001 7.19839 23.5 8.66816 23.5 10.4916V10.5648V14.5648V14.6379C23.5 16.4614 23.5001 17.9311 23.3446 19.0871C23.1833 20.2872 22.8381 21.2977 22.0355 22.1003C21.233 22.9029 20.2225 23.248 19.0223 23.4094C17.8664 23.5648 16.3966 23.5648 14.5731 23.5648H14.5H10.5H10.4269C8.6034 23.5648 7.13363 23.5648 5.97767 23.4094C4.77752 23.248 3.76702 22.9029 2.96447 22.1003C2.16191 21.2977 1.81672 20.2872 1.65537 19.0871C1.49995 17.9312 1.49997 16.4614 1.5 14.638V14.638V14.6379V14.5648V10.5648V10.4916V10.4916V10.4916C1.49997 8.66812 1.49995 7.19837 1.65537 6.04243C1.81672 4.84228 2.16191 3.83178 2.96447 3.02923C3.76702 2.22667 4.77752 1.88148 5.97767 1.72012C7.13362 1.56471 8.60337 1.56473 10.4268 1.56476H10.4268H10.4268ZM18.5 8.56476C18.5 9.66933 17.6046 10.5648 16.5 10.5648C15.3954 10.5648 14.5 9.66933 14.5 8.56476C14.5 7.46019 15.3954 6.56476 16.5 6.56476C17.6046 6.56476 18.5 7.46019 18.5 8.56476ZM4.5 14.5648C4.5 13.6593 4.8597 12.7909 5.49998 12.1506L5.6716 11.979C7.2337 10.4169 9.76636 10.4169 11.3285 11.979L13.7071 14.3577C14.145 14.7956 14.855 14.7956 15.2929 14.3577C16.5119 13.1387 18.4882 13.1387 19.7071 14.3577C20.2146 14.8651 20.5017 15.5536 20.4945 16.2712C20.4842 17.2971 20.4548 18.0666 20.3714 18.6874C20.2548 19.5548 20.0665 19.8267 19.9142 19.979C19.762 20.1312 19.4901 20.3195 18.6226 20.4361C17.6976 20.5605 16.4422 20.5648 14.5 20.5648H10.5C8.55784 20.5648 7.30242 20.5605 6.37741 20.4361C5.50993 20.3195 5.23804 20.1312 5.08579 19.979C4.93354 19.8267 4.74524 19.5548 4.62861 18.6874C4.50425 17.7623 4.5 16.5069 4.5 14.5648Z" fill="white" opacity="0.9"/>
</svg>
