<svg width="20" height="22" viewBox="0 0 20 22" fill="none" xmlns="http://www.w3.org/2000/svg">
<path d="M6 5.25C5.58579 5.25 5.25 5.58579 5.25 6C5.25 6.41421 5.58579 6.75 6 6.75V5.25ZM14 6.75C14.4142 6.75 14.75 6.41421 14.75 6C14.75 5.58579 14.4142 5.25 14 5.25V6.75ZM6 10.25C5.58579 10.25 5.25 10.5858 5.25 11C5.25 11.4142 5.58579 11.75 6 11.75V10.25ZM10 11.75C10.4142 11.75 10.75 11.4142 10.75 11C10.75 10.5858 10.4142 10.25 10 10.25V11.75ZM1.75 17V5H0.25V17H1.75ZM5 1.75H15V0.25H5V1.75ZM18.25 5V11.3431H19.75V5H18.25ZM9.3431 20.25H5V21.75H9.3431V20.25ZM17.2981 13.6412L11.6412 19.2981L12.7019 20.3588L18.3588 14.7019L17.2981 13.6412ZM9.3431 21.75C10.6029 21.75 11.8111 21.2496 12.7019 20.3588L11.6412 19.2981C11.0317 19.9076 10.2051 20.25 9.3431 20.25V21.75ZM18.25 11.3431C18.25 12.2051 17.9076 13.0318 17.2981 13.6412L18.3588 14.7019C19.2496 13.8111 19.75 12.6029 19.75 11.3431H18.25ZM1.75 5C1.75 3.20507 3.20508 1.75 5 1.75V0.25C2.37665 0.25 0.25 2.37665 0.25 5H1.75ZM0.25 17C0.25 19.6234 2.37665 21.75 5 21.75V20.25C3.20507 20.25 1.75 18.7949 1.75 17H0.25ZM15 1.75C16.7949 1.75 18.25 3.20508 18.25 5H19.75C19.75 2.37665 17.6234 0.25 15 0.25V1.75ZM11.75 21V17H10.25V21H11.75ZM15 13.75H19V12.25H15V13.75ZM11.75 17C11.75 15.2051 13.2051 13.75 15 13.75V12.25C12.3766 12.25 10.25 14.3766 10.25 17H11.75ZM6 6.75H14V5.25H6V6.75ZM6 11.75H10V10.25H6V11.75Z" fill="white" opacity="0.8"/>
</svg>
