<svg width="25" height="25" viewBox="0 0 25 25" fill="none" xmlns="http://www.w3.org/2000/svg">
<path fill-rule="evenodd" clip-rule="evenodd" d="M1.5 15.6306C1.49995 16.5171 1.49991 17.2809 1.58215 17.8926C1.67028 18.5481 1.86902 19.1764 2.37868 19.6861C2.88835 20.1957 3.5167 20.3945 4.17221 20.4826C4.78387 20.5649 5.54769 20.5648 6.43417 20.5648H12.5658C13.4523 20.5648 14.2161 20.5649 14.8278 20.4826C15.4833 20.3945 16.1117 20.1957 16.6213 19.6861C17.131 19.1764 17.3297 18.5481 17.4179 17.8926C17.4651 17.5415 17.4852 17.1403 17.4937 16.6946L18.6381 17.6483C19.2971 18.1976 19.8757 18.6798 20.3649 18.9801C20.854 19.2803 21.5766 19.6023 22.3482 19.2409C23.1198 18.8795 23.335 18.1183 23.4175 17.5503C23.5 16.9823 23.4999 16.2291 23.4999 15.3712V9.75828C23.4999 8.90034 23.5 8.14716 23.4175 7.57916C23.335 7.0112 23.1198 6.25 22.3482 5.8886C21.5766 5.52719 20.854 5.84917 20.3649 6.14939C19.8757 6.44963 19.2972 6.93185 18.6381 7.48114L17.4937 8.43483C17.4852 7.98914 17.4651 7.588 17.4179 7.23697C17.3297 6.58145 17.131 5.9531 16.6213 5.44344C16.1117 4.93378 15.4833 4.73504 14.8278 4.6469C14.2161 4.56467 13.4523 4.56471 12.5658 4.56476H6.43417C5.54769 4.56471 4.78387 4.56467 4.17221 4.6469C3.5167 4.73504 2.88835 4.93378 2.37868 5.44344C1.86902 5.9531 1.67028 6.58145 1.58215 7.23697C1.49991 7.84863 1.49995 8.61245 1.5 9.49893V15.6306ZM12.5 12.5648C12.5 14.2216 11.1569 15.5648 9.5 15.5648C7.84315 15.5648 6.5 14.2216 6.5 12.5648C6.5 10.9079 7.84315 9.56476 9.5 9.56476C11.1569 9.56476 12.5 10.9079 12.5 12.5648Z" fill="white" opacity="0.9"/>
</svg>
