<svg width="24" height="22" viewBox="0 0 24 22" fill="none" xmlns="http://www.w3.org/2000/svg">
<path d="M19.9997 7V7.75C20.4139 7.75 20.7497 7.41421 20.7497 7H19.9997ZM3.99973 7H3.24973C3.24973 7.41421 3.58552 7.75 3.99973 7.75V7ZM19.2497 6V7H20.7497V6H19.2497ZM19.9997 6.25H3.99973V7.75H19.9997V6.25ZM4.74973 7V4H3.24973V7H4.74973ZM14.1972 3.75H16.9997V2.25H14.1972V3.75ZM6.99973 1.75H9.5689V0.25H6.99973V1.75ZM10.9519 2.2252L11.8923 2.958L12.8143 1.7748L11.8738 1.042L10.9519 2.2252ZM14.1972 2.25C13.6962 2.25 13.2095 2.08276 12.8143 1.7748L11.8923 2.958C12.551 3.47127 13.3622 3.75 14.1972 3.75V2.25ZM20.7497 6C20.7497 3.92893 19.0708 2.25 16.9997 2.25V3.75C18.2424 3.75 19.2497 4.75736 19.2497 6H20.7497ZM9.5689 1.75C10.0699 1.75 10.5566 1.91724 10.9519 2.2252L11.8738 1.042C11.2151 0.52873 10.404 0.25 9.5689 0.25V1.75ZM4.74973 4C4.74973 2.75736 5.75709 1.75 6.99973 1.75V0.25C4.92867 0.25 3.24973 1.92893 3.24973 4H4.74973ZM3.47371 7.75H20.5258V6.25H3.47371V7.75ZM21.748 9.2619L19.9439 17.681L21.4106 17.9953L23.2147 9.5762L21.748 9.2619ZM16.7661 20.25H7.2334V21.75H16.7661V20.25ZM4.05554 17.681L2.25146 9.2619L0.78475 9.5762L2.58884 17.9953L4.05554 17.681ZM7.2334 20.25C5.7009 20.25 4.37664 19.1794 4.05554 17.681L2.58884 17.9953C3.05814 20.1853 4.99359 21.75 7.2334 21.75V20.25ZM19.9439 17.681C19.6228 19.1794 18.2986 20.25 16.7661 20.25V21.75C19.0059 21.75 20.9413 20.1853 21.4106 17.9953L19.9439 17.681ZM20.5258 7.75C21.3216 7.75 21.9148 8.48377 21.748 9.2619L23.2147 9.5762C23.5816 7.8643 22.2765 6.25 20.5258 6.25V7.75ZM3.47371 6.25C1.72294 6.25 0.417912 7.8643 0.78475 9.5762L2.25146 9.2619C2.08471 8.48377 2.6779 7.75 3.47371 7.75V6.25Z" fill="white" opacity="0.9"/>
</svg>
