<svg width="21" height="21" viewBox="0 0 21 21" fill="none" xmlns="http://www.w3.org/2000/svg">
<path d="M16.4208 8.41043C16.4037 8.54173 16.3528 8.66574 16.2734 8.76926L11.0808 15.7305C10.9845 15.8567 10.8512 15.9471 10.7006 15.987C10.6015 16.0126 10.4979 16.0126 10.3989 15.987C10.2299 15.9565 10.0774 15.8627 9.9702 15.7232L4.77759 8.76926C4.68805 8.65062 4.63589 8.50606 4.62824 8.35535C4.62059 8.20465 4.65783 8.05516 4.73485 7.92735L6.57587 4.94112L6.632 4.86803C6.69736 4.78624 6.77904 4.72027 6.87136 4.67471C6.96368 4.62915 7.06442 4.6051 7.16657 4.60423H13.8838C13.9375 4.59657 13.9921 4.59657 14.0458 4.60423C14.2224 4.64754 14.3761 4.76042 14.4745 4.91919L16.3155 7.90542C16.4085 8.05479 16.4459 8.23436 16.4208 8.41043Z" fill="white" stroke="white" stroke-linecap="round" stroke-linejoin="round"/>
<path d="M11.9311 4.62616L12.9352 8.41044L10.7006 15.979M10.3989 15.987L7.83381 8.41044L9.11984 4.62616M4.62958 8.41044H16.4207Z" fill="white"/>
<path d="M11.9311 4.62616L12.9352 8.41044L10.7006 15.979M10.3989 15.987L7.83381 8.41044L9.11984 4.62616M4.62958 8.41044H16.4207" stroke="white" stroke-linecap="round" stroke-linejoin="round"/>
<path d="M19.9877 7.92399C19.9603 8.13272 19.8783 8.32988 19.7505 8.49446L11.3903 19.5616C11.2352 19.7623 11.0206 19.906 10.7782 19.9694C10.6187 20.0102 10.4519 20.0102 10.2924 19.9694C10.0203 19.921 9.77476 19.7718 9.60222 19.55L1.24204 8.49446C1.09788 8.30585 1.0139 8.07602 1.00158 7.83642C0.989262 7.59683 1.04921 7.35917 1.17323 7.15597L4.13729 2.40838L4.22767 2.29217C4.33289 2.16214 4.46439 2.05725 4.61303 1.98482C4.76167 1.91239 4.92387 1.87415 5.08834 1.87277H15.9032C15.9897 1.86059 16.0775 1.86059 16.164 1.87277C16.4484 1.94162 16.6957 2.12109 16.8542 2.37351L19.8183 7.12111C19.9679 7.35858 20.0282 7.64407 19.9877 7.92399Z" stroke="white" stroke-width="2" stroke-linecap="round" stroke-linejoin="round"/>
</svg>
