<svg width="74" height="74" viewBox="0 0 74 74" fill="none" xmlns="http://www.w3.org/2000/svg">
<g clip-path="url(#clip0_1_6618)">
<path d="M36.3192 20.3204V0L0.680786 17.982L20.572 28.268L36.3192 20.3204Z" fill="white"/>
<path d="M20.128 45.51V29.4224L0 19.018V55.6776L36.3192 74V53.6796L20.128 45.51Z" fill="white"/>
<path d="M53.3984 28.2384L73.2748 17.9672L37.6808 0V20.3204L53.3984 28.2384Z" fill="white"/>
<path d="M74 18.9736L53.872 29.378V45.51L37.6808 53.6796V74L74 55.6776V18.9736Z" fill="white"/>
<path d="M21.4896 44.8292L36.3192 52.3032V37.7992L21.4896 30.1328V44.8292Z" fill="white"/>
<path d="M36.3192 36.408V21.6968L21.9188 28.9636L36.3192 36.408Z" fill="white"/>
<path d="M37.6808 21.6968V36.3636L52.0368 28.934L37.6808 21.6968Z" fill="white"/>
<path d="M52.5104 30.0884L37.6808 37.7548V52.3032L52.5104 44.8292V30.0884Z" fill="white"/>
</g>
<defs>
<clipPath id="clip0_1_6618">
<rect width="74" height="74" fill="white"/>
</clipPath>
</defs>
</svg>
