<svg width="59" height="49" viewBox="0 0 59 49" fill="none" xmlns="http://www.w3.org/2000/svg">
<g clip-path="url(#clip0_5_107)">
<path fill-rule="evenodd" clip-rule="evenodd" d="M9.02664 14.3269C7.69664 13.5548 7.69934 11.6332 9.0315 10.8648L19.4989 4.82743C20.1183 4.47016 20.8813 4.47078 21.5002 4.82906L31.9283 10.8664C33.2568 11.6355 33.2594 13.5525 31.9332 14.3253L21.505 20.4019C20.8837 20.7639 20.1159 20.7645 19.494 20.4035L13.2687 16.7896L9.02664 14.3269ZM1 13.6208V32.0375C1 32.6153 1.14228 33.1532 1.42683 33.6511C1.71103 34.1487 2.11042 34.5498 2.625 34.8542L18.0719 43.7479C19.1518 44.3696 20.5 43.5902 20.5 42.3441C20.5 41.7651 20.1909 41.2301 19.6894 40.9409L5.25089 32.6147C4.63159 32.2575 4.25 31.597 4.25 30.8821V18.7663C4.25 17.2262 5.9176 16.264 7.25094 17.0348L19.547 24.1428C20.1696 24.5027 20.9375 24.5006 21.5582 24.1374L33.7397 17.0077C35.073 16.2273 36.75 17.1889 36.75 18.7338V25.875C36.75 26.7725 37.4775 27.5 38.375 27.5C39.2725 27.5 40 26.7725 40 25.875V13.6208C40 13.0431 39.8579 12.5052 39.5737 12.0072C39.2892 11.5096 38.8896 11.1086 38.375 10.8042L22.125 1.43333C21.8722 1.25278 21.6104 1.13542 21.3396 1.08125C21.0687 1.02708 20.788 1 20.4973 1C20.2066 1 19.9358 1.02708 19.6848 1.08125C19.4338 1.13542 19.1639 1.25278 18.875 1.43333L2.625 10.8042C2.11042 11.1086 1.71103 11.5096 1.42683 12.0072C1.14228 12.5052 1 13.0431 1 13.6208Z" fill="white" stroke="white" stroke-width="2"/>
</g>
<path d="M23.1562 38V30.5098H24.5234V33.2588C24.6797 33.0505 24.8896 32.8877 25.1533 32.7705C25.4202 32.6533 25.7327 32.5947 26.0908 32.5947C26.8005 32.5947 27.3652 32.8454 27.7852 33.3467C28.2083 33.848 28.4199 34.4876 28.4199 35.2656V35.4219C28.4199 36.2031 28.2083 36.8444 27.7852 37.3457C27.362 37.847 26.7972 38.0977 26.0908 38.0977C25.7295 38.0977 25.4056 38.0293 25.1191 37.8926C24.8327 37.7526 24.6276 37.5801 24.5039 37.375H24.4795L24.4453 38H23.1562ZM24.5234 36.2666C24.6146 36.4814 24.7643 36.6719 24.9727 36.8379C25.1842 37.0007 25.4414 37.082 25.7441 37.082C26.1803 37.082 26.501 36.9274 26.7061 36.6182C26.9111 36.3057 27.0137 35.915 27.0137 35.4463V35.2461C27.0137 34.7773 26.9111 34.3883 26.7061 34.0791C26.501 33.7699 26.1787 33.6152 25.7393 33.6152C25.4398 33.6152 25.1842 33.6982 24.9727 33.8643C24.7643 34.027 24.6146 34.2142 24.5234 34.4258V36.2666ZM29.2109 40.0312L29.2158 39.0254C29.3005 39.0514 29.403 39.0742 29.5234 39.0938C29.6471 39.1165 29.7594 39.1279 29.8604 39.1279C30.098 39.1279 30.2982 39.0514 30.4609 38.8984C30.6237 38.7487 30.7799 38.4362 30.9297 37.9609H30.832L28.7324 32.6924H30.1094L31.2812 35.8711C31.3268 35.998 31.3691 36.1266 31.4082 36.2568C31.4473 36.387 31.4782 36.514 31.501 36.6377H31.5303C31.5531 36.514 31.5824 36.3887 31.6182 36.2617C31.6572 36.1315 31.6995 36.0013 31.7451 35.8711L32.8389 32.6924H34.1328L31.833 38.6592C31.6507 39.1312 31.4049 39.4958 31.0957 39.7529C30.7865 40.0133 30.4007 40.1436 29.9385 40.1436C29.7985 40.1436 29.665 40.1322 29.5381 40.1094C29.4144 40.0898 29.3053 40.0638 29.2109 40.0312ZM34.0693 33.6641V32.6924H37.3408V33.6641H34.0693ZM34.9238 36.5107V33.2344V33.0928V31.6084H36.291V36.501C36.291 36.7288 36.335 36.89 36.4229 36.9844C36.5107 37.0788 36.6426 37.126 36.8184 37.126C36.8997 37.126 36.9811 37.1162 37.0625 37.0967C37.1471 37.0771 37.2285 37.0527 37.3066 37.0234V38C37.2253 38.0391 37.1162 38.0732 36.9795 38.1025C36.846 38.1318 36.6995 38.1465 36.54 38.1465C36.0518 38.1465 35.6595 38.0146 35.3633 37.751C35.0703 37.4873 34.9238 37.0739 34.9238 36.5107ZM37.8584 35.4219V35.2656C37.8584 34.4551 38.1107 33.7992 38.6152 33.2979C39.123 32.7965 39.7936 32.5459 40.627 32.5459C41.457 32.5459 42.1243 32.7965 42.6289 33.2979C43.1367 33.7992 43.3906 34.4551 43.3906 35.2656V35.4219C43.3906 36.2357 43.1367 36.8932 42.6289 37.3945C42.1243 37.8958 41.457 38.1465 40.627 38.1465C39.7936 38.1465 39.123 37.8958 38.6152 37.3945C38.1107 36.8932 37.8584 36.2357 37.8584 35.4219ZM39.2646 35.2412V35.4512C39.2646 35.946 39.3802 36.3496 39.6113 36.6621C39.8424 36.9714 40.181 37.126 40.627 37.126C41.0697 37.126 41.4066 36.9714 41.6377 36.6621C41.8721 36.3496 41.9893 35.946 41.9893 35.4512V35.2412C41.9893 34.7497 41.8721 34.3477 41.6377 34.0352C41.4033 33.7227 41.0664 33.5664 40.627 33.5664C40.1842 33.5664 39.8457 33.7227 39.6113 34.0352C39.3802 34.3477 39.2646 34.7497 39.2646 35.2412ZM43.6494 32.6924H45.0361L46.2227 35.9346C46.2682 36.0648 46.304 36.1803 46.3301 36.2812C46.3561 36.3822 46.3773 36.4928 46.3936 36.6133H46.4229C46.4391 36.4896 46.4603 36.3789 46.4863 36.2812C46.5124 36.1803 46.5482 36.0648 46.5938 35.9346L47.7607 32.6924H49.0449L46.9648 38H45.7295L43.6494 32.6924ZM49.3184 35.4219V35.2656C49.3184 34.4616 49.5625 33.8073 50.0508 33.3027C50.5423 32.7982 51.182 32.5459 51.9697 32.5459C52.764 32.5459 53.3809 32.7819 53.8203 33.2539C54.2598 33.7259 54.4795 34.3672 54.4795 35.1777V35.6855H50.2607V34.7822H53.1123L53.1074 34.7139C53.1074 34.4111 53.0163 34.1377 52.834 33.8936C52.6517 33.6462 52.3571 33.5225 51.9502 33.5225C51.5433 33.5225 51.2292 33.6852 51.0078 34.0107C50.7865 34.333 50.6758 34.7432 50.6758 35.2412V35.4463C50.6758 35.9411 50.793 36.3512 51.0273 36.6768C51.265 37.0023 51.6214 37.165 52.0967 37.165C52.4059 37.165 52.6729 37.0951 52.8975 36.9551C53.1253 36.8118 53.3092 36.6442 53.4492 36.4521L54.3672 37.1162C54.2012 37.3929 53.9196 37.6338 53.5225 37.8389C53.1253 38.0439 52.6517 38.1465 52.1016 38.1465C51.2161 38.1465 50.5309 37.8942 50.0459 37.3896C49.5609 36.8851 49.3184 36.2292 49.3184 35.4219ZM55.4805 38V32.6924H56.7695L56.8086 33.3027H56.833C56.9502 33.1009 57.1081 32.9251 57.3066 32.7754C57.5085 32.6257 57.7412 32.5508 58.0049 32.5508C58.0765 32.5508 58.1497 32.5589 58.2246 32.5752C58.2995 32.5915 58.3516 32.6061 58.3809 32.6191V33.7861C58.3158 33.7731 58.249 33.7633 58.1807 33.7568C58.1156 33.7503 58.0423 33.7471 57.9609 33.7471C57.694 33.7471 57.4645 33.8187 57.2725 33.9619C57.0804 34.1019 56.9404 34.2793 56.8525 34.4941V38H55.4805Z" fill="white"/>
<defs>
<clipPath id="clip0_5_107">
<rect width="42" height="49" fill="white"/>
</clipPath>
</defs>
</svg>
