<svg width="59" height="49" viewBox="0 0 59 49" fill="none" xmlns="http://www.w3.org/2000/svg">
<g clip-path="url(#clip0_5_107)">
<path fill-rule="evenodd" clip-rule="evenodd" d="M9.02664 14.3269C7.69664 13.5548 7.69934 11.6332 9.0315 10.8648L19.4989 4.82743C20.1183 4.47016 20.8813 4.47078 21.5002 4.82906L31.9283 10.8664C33.2568 11.6355 33.2594 13.5525 31.9332 14.3253L21.505 20.4019C20.8837 20.7639 20.1159 20.7645 19.494 20.4035L13.2687 16.7896L9.02664 14.3269ZM1 13.6208V32.0375C1 32.6153 1.14228 33.1532 1.42683 33.6511C1.71103 34.1487 2.11042 34.5498 2.625 34.8542L18.0719 43.7479C19.1518 44.3696 20.5 43.5902 20.5 42.3441C20.5 41.7651 20.1909 41.2301 19.6894 40.9409L5.25089 32.6147C4.63159 32.2575 4.25 31.597 4.25 30.8821V18.7663C4.25 17.2262 5.9176 16.264 7.25094 17.0348L19.547 24.1428C20.1696 24.5027 20.9375 24.5006 21.5582 24.1374L33.7397 17.0077C35.073 16.2273 36.75 17.1889 36.75 18.7338V25.875C36.75 26.7725 37.4775 27.5 38.375 27.5C39.2725 27.5 40 26.7725 40 25.875V13.6208C40 13.0431 39.8579 12.5052 39.5737 12.0072C39.2892 11.5096 38.8896 11.1086 38.375 10.8042L22.125 1.43333C21.8722 1.25278 21.6104 1.13542 21.3396 1.08125C21.0687 1.02708 20.788 1 20.4973 1C20.2066 1 19.9358 1.02708 19.6848 1.08125C19.4338 1.13542 19.1639 1.25278 18.875 1.43333L2.625 10.8042C2.11042 11.1086 1.71103 11.5096 1.42683 12.0072C1.14228 12.5052 1 13.0431 1 13.6208Z" fill="white" stroke="white" stroke-opacity="0.5" stroke-width="2"/>
</g>
<mask id="path-2-outside-1_5_107" maskUnits="userSpaceOnUse" x="22" y="30" width="37" height="11" fill="black">
<rect fill="white" x="22" y="30" width="37" height="11"/>
<path d="M23.1562 38V30.5098H24.5234V33.2588C24.6797 33.0505 24.8896 32.8877 25.1533 32.7705C25.4202 32.6533 25.7327 32.5947 26.0908 32.5947C26.8005 32.5947 27.3652 32.8454 27.7852 33.3467C28.2083 33.848 28.4199 34.4876 28.4199 35.2656V35.4219C28.4199 36.2031 28.2083 36.8444 27.7852 37.3457C27.362 37.847 26.7972 38.0977 26.0908 38.0977C25.7295 38.0977 25.4056 38.0293 25.1191 37.8926C24.8327 37.7526 24.6276 37.5801 24.5039 37.375H24.4795L24.4453 38H23.1562ZM24.5234 36.2666C24.6146 36.4814 24.7643 36.6719 24.9727 36.8379C25.1842 37.0007 25.4414 37.082 25.7441 37.082C26.1803 37.082 26.501 36.9274 26.7061 36.6182C26.9111 36.3057 27.0137 35.915 27.0137 35.4463V35.2461C27.0137 34.7773 26.9111 34.3883 26.7061 34.0791C26.501 33.7699 26.1787 33.6152 25.7393 33.6152C25.4398 33.6152 25.1842 33.6982 24.9727 33.8643C24.7643 34.027 24.6146 34.2142 24.5234 34.4258V36.2666ZM29.2109 40.0312L29.2158 39.0254C29.3005 39.0514 29.403 39.0742 29.5234 39.0938C29.6471 39.1165 29.7594 39.1279 29.8604 39.1279C30.098 39.1279 30.2982 39.0514 30.4609 38.8984C30.6237 38.7487 30.7799 38.4362 30.9297 37.9609H30.832L28.7324 32.6924H30.1094L31.2812 35.8711C31.3268 35.998 31.3691 36.1266 31.4082 36.2568C31.4473 36.387 31.4782 36.514 31.501 36.6377H31.5303C31.5531 36.514 31.5824 36.3887 31.6182 36.2617C31.6572 36.1315 31.6995 36.0013 31.7451 35.8711L32.8389 32.6924H34.1328L31.833 38.6592C31.6507 39.1312 31.4049 39.4958 31.0957 39.7529C30.7865 40.0133 30.4007 40.1436 29.9385 40.1436C29.7985 40.1436 29.665 40.1322 29.5381 40.1094C29.4144 40.0898 29.3053 40.0638 29.2109 40.0312ZM34.0693 33.6641V32.6924H37.3408V33.6641H34.0693ZM34.9238 36.5107V33.2344V33.0928V31.6084H36.291V36.501C36.291 36.7288 36.335 36.89 36.4229 36.9844C36.5107 37.0788 36.6426 37.126 36.8184 37.126C36.8997 37.126 36.9811 37.1162 37.0625 37.0967C37.1471 37.0771 37.2285 37.0527 37.3066 37.0234V38C37.2253 38.0391 37.1162 38.0732 36.9795 38.1025C36.846 38.1318 36.6995 38.1465 36.54 38.1465C36.0518 38.1465 35.6595 38.0146 35.3633 37.751C35.0703 37.4873 34.9238 37.0739 34.9238 36.5107ZM37.8584 35.4219V35.2656C37.8584 34.4551 38.1107 33.7992 38.6152 33.2979C39.123 32.7965 39.7936 32.5459 40.627 32.5459C41.457 32.5459 42.1243 32.7965 42.6289 33.2979C43.1367 33.7992 43.3906 34.4551 43.3906 35.2656V35.4219C43.3906 36.2357 43.1367 36.8932 42.6289 37.3945C42.1243 37.8958 41.457 38.1465 40.627 38.1465C39.7936 38.1465 39.123 37.8958 38.6152 37.3945C38.1107 36.8932 37.8584 36.2357 37.8584 35.4219ZM39.2646 35.2412V35.4512C39.2646 35.946 39.3802 36.3496 39.6113 36.6621C39.8424 36.9714 40.181 37.126 40.627 37.126C41.0697 37.126 41.4066 36.9714 41.6377 36.6621C41.8721 36.3496 41.9893 35.946 41.9893 35.4512V35.2412C41.9893 34.7497 41.8721 34.3477 41.6377 34.0352C41.4033 33.7227 41.0664 33.5664 40.627 33.5664C40.1842 33.5664 39.8457 33.7227 39.6113 34.0352C39.3802 34.3477 39.2646 34.7497 39.2646 35.2412ZM43.6494 32.6924H45.0361L46.2227 35.9346C46.2682 36.0648 46.304 36.1803 46.3301 36.2812C46.3561 36.3822 46.3773 36.4928 46.3936 36.6133H46.4229C46.4391 36.4896 46.4603 36.3789 46.4863 36.2812C46.5124 36.1803 46.5482 36.0648 46.5938 35.9346L47.7607 32.6924H49.0449L46.9648 38H45.7295L43.6494 32.6924ZM49.3184 35.4219V35.2656C49.3184 34.4616 49.5625 33.8073 50.0508 33.3027C50.5423 32.7982 51.182 32.5459 51.9697 32.5459C52.764 32.5459 53.3809 32.7819 53.8203 33.2539C54.2598 33.7259 54.4795 34.3672 54.4795 35.1777V35.6855H50.2607V34.7822H53.1123L53.1074 34.7139C53.1074 34.4111 53.0163 34.1377 52.834 33.8936C52.6517 33.6462 52.3571 33.5225 51.9502 33.5225C51.5433 33.5225 51.2292 33.6852 51.0078 34.0107C50.7865 34.333 50.6758 34.7432 50.6758 35.2412V35.4463C50.6758 35.9411 50.793 36.3512 51.0273 36.6768C51.265 37.0023 51.6214 37.165 52.0967 37.165C52.4059 37.165 52.6729 37.0951 52.8975 36.9551C53.1253 36.8118 53.3092 36.6442 53.4492 36.4521L54.3672 37.1162C54.2012 37.3929 53.9196 37.6338 53.5225 37.8389C53.1253 38.0439 52.6517 38.1465 52.1016 38.1465C51.2161 38.1465 50.5309 37.8942 50.0459 37.3896C49.5609 36.8851 49.3184 36.2292 49.3184 35.4219ZM55.4805 38V32.6924H56.7695L56.8086 33.3027H56.833C56.9502 33.1009 57.1081 32.9251 57.3066 32.7754C57.5085 32.6257 57.7412 32.5508 58.0049 32.5508C58.0765 32.5508 58.1497 32.5589 58.2246 32.5752C58.2995 32.5915 58.3516 32.6061 58.3809 32.6191V33.7861C58.3158 33.7731 58.249 33.7633 58.1807 33.7568C58.1156 33.7503 58.0423 33.7471 57.9609 33.7471C57.694 33.7471 57.4645 33.8187 57.2725 33.9619C57.0804 34.1019 56.9404 34.2793 56.8525 34.4941V38H55.4805Z"/>
</mask>
<path d="M23.1562 38V30.5098H24.5234V33.2588C24.6797 33.0505 24.8896 32.8877 25.1533 32.7705C25.4202 32.6533 25.7327 32.5947 26.0908 32.5947C26.8005 32.5947 27.3652 32.8454 27.7852 33.3467C28.2083 33.848 28.4199 34.4876 28.4199 35.2656V35.4219C28.4199 36.2031 28.2083 36.8444 27.7852 37.3457C27.362 37.847 26.7972 38.0977 26.0908 38.0977C25.7295 38.0977 25.4056 38.0293 25.1191 37.8926C24.8327 37.7526 24.6276 37.5801 24.5039 37.375H24.4795L24.4453 38H23.1562ZM24.5234 36.2666C24.6146 36.4814 24.7643 36.6719 24.9727 36.8379C25.1842 37.0007 25.4414 37.082 25.7441 37.082C26.1803 37.082 26.501 36.9274 26.7061 36.6182C26.9111 36.3057 27.0137 35.915 27.0137 35.4463V35.2461C27.0137 34.7773 26.9111 34.3883 26.7061 34.0791C26.501 33.7699 26.1787 33.6152 25.7393 33.6152C25.4398 33.6152 25.1842 33.6982 24.9727 33.8643C24.7643 34.027 24.6146 34.2142 24.5234 34.4258V36.2666ZM29.2109 40.0312L29.2158 39.0254C29.3005 39.0514 29.403 39.0742 29.5234 39.0938C29.6471 39.1165 29.7594 39.1279 29.8604 39.1279C30.098 39.1279 30.2982 39.0514 30.4609 38.8984C30.6237 38.7487 30.7799 38.4362 30.9297 37.9609H30.832L28.7324 32.6924H30.1094L31.2812 35.8711C31.3268 35.998 31.3691 36.1266 31.4082 36.2568C31.4473 36.387 31.4782 36.514 31.501 36.6377H31.5303C31.5531 36.514 31.5824 36.3887 31.6182 36.2617C31.6572 36.1315 31.6995 36.0013 31.7451 35.8711L32.8389 32.6924H34.1328L31.833 38.6592C31.6507 39.1312 31.4049 39.4958 31.0957 39.7529C30.7865 40.0133 30.4007 40.1436 29.9385 40.1436C29.7985 40.1436 29.665 40.1322 29.5381 40.1094C29.4144 40.0898 29.3053 40.0638 29.2109 40.0312ZM34.0693 33.6641V32.6924H37.3408V33.6641H34.0693ZM34.9238 36.5107V33.2344V33.0928V31.6084H36.291V36.501C36.291 36.7288 36.335 36.89 36.4229 36.9844C36.5107 37.0788 36.6426 37.126 36.8184 37.126C36.8997 37.126 36.9811 37.1162 37.0625 37.0967C37.1471 37.0771 37.2285 37.0527 37.3066 37.0234V38C37.2253 38.0391 37.1162 38.0732 36.9795 38.1025C36.846 38.1318 36.6995 38.1465 36.54 38.1465C36.0518 38.1465 35.6595 38.0146 35.3633 37.751C35.0703 37.4873 34.9238 37.0739 34.9238 36.5107ZM37.8584 35.4219V35.2656C37.8584 34.4551 38.1107 33.7992 38.6152 33.2979C39.123 32.7965 39.7936 32.5459 40.627 32.5459C41.457 32.5459 42.1243 32.7965 42.6289 33.2979C43.1367 33.7992 43.3906 34.4551 43.3906 35.2656V35.4219C43.3906 36.2357 43.1367 36.8932 42.6289 37.3945C42.1243 37.8958 41.457 38.1465 40.627 38.1465C39.7936 38.1465 39.123 37.8958 38.6152 37.3945C38.1107 36.8932 37.8584 36.2357 37.8584 35.4219ZM39.2646 35.2412V35.4512C39.2646 35.946 39.3802 36.3496 39.6113 36.6621C39.8424 36.9714 40.181 37.126 40.627 37.126C41.0697 37.126 41.4066 36.9714 41.6377 36.6621C41.8721 36.3496 41.9893 35.946 41.9893 35.4512V35.2412C41.9893 34.7497 41.8721 34.3477 41.6377 34.0352C41.4033 33.7227 41.0664 33.5664 40.627 33.5664C40.1842 33.5664 39.8457 33.7227 39.6113 34.0352C39.3802 34.3477 39.2646 34.7497 39.2646 35.2412ZM43.6494 32.6924H45.0361L46.2227 35.9346C46.2682 36.0648 46.304 36.1803 46.3301 36.2812C46.3561 36.3822 46.3773 36.4928 46.3936 36.6133H46.4229C46.4391 36.4896 46.4603 36.3789 46.4863 36.2812C46.5124 36.1803 46.5482 36.0648 46.5938 35.9346L47.7607 32.6924H49.0449L46.9648 38H45.7295L43.6494 32.6924ZM49.3184 35.4219V35.2656C49.3184 34.4616 49.5625 33.8073 50.0508 33.3027C50.5423 32.7982 51.182 32.5459 51.9697 32.5459C52.764 32.5459 53.3809 32.7819 53.8203 33.2539C54.2598 33.7259 54.4795 34.3672 54.4795 35.1777V35.6855H50.2607V34.7822H53.1123L53.1074 34.7139C53.1074 34.4111 53.0163 34.1377 52.834 33.8936C52.6517 33.6462 52.3571 33.5225 51.9502 33.5225C51.5433 33.5225 51.2292 33.6852 51.0078 34.0107C50.7865 34.333 50.6758 34.7432 50.6758 35.2412V35.4463C50.6758 35.9411 50.793 36.3512 51.0273 36.6768C51.265 37.0023 51.6214 37.165 52.0967 37.165C52.4059 37.165 52.6729 37.0951 52.8975 36.9551C53.1253 36.8118 53.3092 36.6442 53.4492 36.4521L54.3672 37.1162C54.2012 37.3929 53.9196 37.6338 53.5225 37.8389C53.1253 38.0439 52.6517 38.1465 52.1016 38.1465C51.2161 38.1465 50.5309 37.8942 50.0459 37.3896C49.5609 36.8851 49.3184 36.2292 49.3184 35.4219ZM55.4805 38V32.6924H56.7695L56.8086 33.3027H56.833C56.9502 33.1009 57.1081 32.9251 57.3066 32.7754C57.5085 32.6257 57.7412 32.5508 58.0049 32.5508C58.0765 32.5508 58.1497 32.5589 58.2246 32.5752C58.2995 32.5915 58.3516 32.6061 58.3809 32.6191V33.7861C58.3158 33.7731 58.249 33.7633 58.1807 33.7568C58.1156 33.7503 58.0423 33.7471 57.9609 33.7471C57.694 33.7471 57.4645 33.8187 57.2725 33.9619C57.0804 34.1019 56.9404 34.2793 56.8525 34.4941V38H55.4805Z" fill="white"/>
<path d="M23.1562 38H22.6562V38.5H23.1562V38ZM23.1562 30.5098V30.0098H22.6562V30.5098H23.1562ZM24.5234 30.5098H25.0234V30.0098H24.5234V30.5098ZM24.5234 33.2588H24.0234V34.7588L24.9234 33.5588L24.5234 33.2588ZM25.1533 32.7705L24.9523 32.3127L24.9503 32.3136L25.1533 32.7705ZM27.7852 33.3467L27.4019 33.6678L27.4031 33.6692L27.7852 33.3467ZM27.7852 37.3457L27.4031 37.0232L27.7852 37.3457ZM25.1191 37.8926L24.8996 38.3418L24.9038 38.3438L25.1191 37.8926ZM24.5039 37.375L24.9321 37.1168L24.7862 36.875H24.5039V37.375ZM24.4795 37.375V36.875H24.0061L23.9802 37.3477L24.4795 37.375ZM24.4453 38V38.5H24.9187L24.9446 38.0273L24.4453 38ZM24.5234 36.2666H24.0234V36.3683L24.0631 36.4619L24.5234 36.2666ZM24.9727 36.8379L24.661 37.229L24.6678 37.2342L24.9727 36.8379ZM26.7061 36.6182L27.1228 36.8945L27.1241 36.8925L26.7061 36.6182ZM24.9727 33.8643L25.2805 34.2583L25.2813 34.2576L24.9727 33.8643ZM24.5234 34.4258L24.0642 34.228L24.0234 34.3227V34.4258H24.5234ZM23.1562 38H23.6562V30.5098H23.1562H22.6562V38H23.1562ZM23.1562 30.5098V31.0098H24.5234V30.5098V30.0098H23.1562V30.5098ZM24.5234 30.5098H24.0234V33.2588H24.5234H25.0234V30.5098H24.5234ZM24.5234 33.2588L24.9234 33.5588C25.0231 33.4259 25.1621 33.3138 25.3564 33.2274L25.1533 32.7705L24.9503 32.3136C24.6172 32.4616 24.3362 32.6751 24.1234 32.9588L24.5234 33.2588ZM25.1533 32.7705L25.3543 33.2283C25.5452 33.1445 25.7866 33.0947 26.0908 33.0947V32.5947V32.0947C25.6789 32.0947 25.2953 32.1621 24.9523 32.3127L25.1533 32.7705ZM26.0908 32.5947V33.0947C26.6668 33.0947 27.0858 33.2904 27.4019 33.6678L27.7852 33.3467L28.1684 33.0256C27.6447 32.4004 26.9341 32.0947 26.0908 32.0947V32.5947ZM27.7852 33.3467L27.4031 33.6692C27.7365 34.0642 27.9199 34.5827 27.9199 35.2656H28.4199H28.9199C28.9199 34.3926 28.6802 33.6318 28.1672 33.0242L27.7852 33.3467ZM28.4199 35.2656H27.9199V35.4219H28.4199H28.9199V35.2656H28.4199ZM28.4199 35.4219H27.9199C27.9199 36.1086 27.7362 36.6286 27.4031 37.0232L27.7852 37.3457L28.1672 37.6682C28.6805 37.0602 28.9199 36.2976 28.9199 35.4219H28.4199ZM27.7852 37.3457L27.4031 37.0232C27.0829 37.4025 26.6628 37.5977 26.0908 37.5977V38.0977V38.5977C26.9316 38.5977 27.6411 38.2915 28.1672 37.6682L27.7852 37.3457ZM26.0908 38.0977V37.5977C25.7937 37.5977 25.545 37.5418 25.3345 37.4413L25.1191 37.8926L24.9038 38.3438C25.2662 38.5168 25.6653 38.5977 26.0908 38.5977V38.0977ZM25.1191 37.8926L25.3387 37.4433C25.1107 37.3319 24.9921 37.2163 24.9321 37.1168L24.5039 37.375L24.0758 37.6332C24.2631 37.9439 24.5547 38.1733 24.8996 38.3418L25.1191 37.8926ZM24.5039 37.375V36.875H24.4795V37.375V37.875H24.5039V37.375ZM24.4795 37.375L23.9802 37.3477L23.9461 37.9727L24.4453 38L24.9446 38.0273L24.9787 37.4023L24.4795 37.375ZM24.4453 38V37.5H23.1562V38V38.5H24.4453V38ZM24.5234 36.2666L24.0631 36.4619C24.1911 36.7636 24.3969 37.0185 24.6611 37.2289L24.9727 36.8379L25.2843 36.4469C25.1317 36.3253 25.038 36.1993 24.9837 36.0713L24.5234 36.2666ZM24.9727 36.8379L24.6678 37.2342C24.9783 37.4731 25.3466 37.582 25.7441 37.582V37.082V36.582C25.5362 36.582 25.3901 36.5282 25.2775 36.4416L24.9727 36.8379ZM25.7441 37.082V37.582C26.3139 37.582 26.8077 37.3696 27.1228 36.8945L26.7061 36.6182L26.2894 36.3418C26.1943 36.4852 26.0468 36.582 25.7441 36.582V37.082ZM26.7061 36.6182L27.1241 36.8925C27.3948 36.48 27.5137 35.9878 27.5137 35.4463H27.0137H26.5137C26.5137 35.8423 26.4275 36.1313 26.288 36.3438L26.7061 36.6182ZM27.0137 35.4463H27.5137V35.2461H27.0137H26.5137V35.4463H27.0137ZM27.0137 35.2461H27.5137C27.5137 34.7049 27.3949 34.2131 27.1228 33.8028L26.7061 34.0791L26.2894 34.3554C26.4274 34.5636 26.5137 34.8498 26.5137 35.2461H27.0137ZM26.7061 34.0791L27.1228 33.8028C26.8069 33.3265 26.3106 33.1152 25.7393 33.1152V33.6152V34.1152C26.0468 34.1152 26.195 34.2132 26.2894 34.3554L26.7061 34.0791ZM25.7393 33.6152V33.1152C25.3413 33.1152 24.9737 33.2279 24.664 33.4709L24.9727 33.8643L25.2813 34.2576C25.3948 34.1686 25.5383 34.1152 25.7393 34.1152V33.6152ZM24.9727 33.8643L24.6648 33.4702C24.4002 33.677 24.1932 33.9286 24.0642 34.228L24.5234 34.4258L24.9826 34.6236C25.036 34.4998 25.1284 34.3771 25.2805 34.2583L24.9727 33.8643ZM24.5234 34.4258H24.0234V36.2666H24.5234H25.0234V34.4258H24.5234ZM29.2109 40.0312L28.7109 40.0288L28.7092 40.3871L29.0479 40.5039L29.2109 40.0312ZM29.2158 39.0254L29.3629 38.5475L28.7191 38.3494L28.7158 39.023L29.2158 39.0254ZM29.5234 39.0938L29.614 38.6019L29.6035 38.6002L29.5234 39.0938ZM30.4609 38.8984L30.1224 38.5305L30.1185 38.5341L30.4609 38.8984ZM30.9297 37.9609L31.4066 38.1112L31.6115 37.4609H30.9297V37.9609ZM30.832 37.9609L30.3676 38.146L30.493 38.4609H30.832V37.9609ZM28.7324 32.6924V32.1924H27.9949L28.2679 32.8775L28.7324 32.6924ZM30.1094 32.6924L30.5785 32.5194L30.4579 32.1924H30.1094V32.6924ZM31.2812 35.8711L31.7519 35.7022L31.7504 35.6981L31.2812 35.8711ZM31.501 36.6377L31.0092 36.7283L31.0847 37.1377H31.501V36.6377ZM31.5303 36.6377V37.1377H31.9466L32.022 36.7283L31.5303 36.6377ZM31.6182 36.2617L31.1392 36.118L31.1369 36.126L31.6182 36.2617ZM31.7451 35.8711L32.2171 36.0363L32.2179 36.0338L31.7451 35.8711ZM32.8389 32.6924V32.1924H32.4821L32.3661 32.5297L32.8389 32.6924ZM34.1328 32.6924L34.5994 32.8722L34.8614 32.1924H34.1328V32.6924ZM31.833 38.6592L32.2994 38.8393L32.2996 38.839L31.833 38.6592ZM31.0957 39.7529L30.776 39.3685L30.7736 39.3705L31.0957 39.7529ZM29.5381 40.1094L29.6264 39.6171L29.6161 39.6155L29.5381 40.1094ZM29.2109 40.0312L29.7109 40.0337L29.7158 39.0278L29.2158 39.0254L28.7158 39.023L28.7109 40.0288L29.2109 40.0312ZM29.2158 39.0254L29.0688 39.5033C29.1818 39.5381 29.3081 39.5654 29.4434 39.5873L29.5234 39.0938L29.6035 38.6002C29.4979 38.5831 29.4191 38.5648 29.3629 38.5475L29.2158 39.0254ZM29.5234 39.0938L29.4329 39.5855C29.5795 39.6125 29.7227 39.6279 29.8604 39.6279V39.1279V38.6279C29.7962 38.6279 29.7148 38.6206 29.614 38.602L29.5234 39.0938ZM29.8604 39.1279V39.6279C30.2163 39.6279 30.5416 39.5088 30.8034 39.2628L30.4609 38.8984L30.1185 38.5341C30.0547 38.594 29.9796 38.6279 29.8604 38.6279V39.1279ZM30.4609 38.8984L30.7995 39.2664C31.0686 39.0188 31.2558 38.5896 31.4066 38.1112L30.9297 37.9609L30.4528 37.8107C30.3041 38.2828 30.1788 38.4786 30.1224 38.5305L30.4609 38.8984ZM30.9297 37.9609V37.4609H30.832V37.9609V38.4609H30.9297V37.9609ZM30.832 37.9609L31.2965 37.7758L29.1969 32.5073L28.7324 32.6924L28.2679 32.8775L30.3676 38.146L30.832 37.9609ZM28.7324 32.6924V33.1924H30.1094V32.6924V32.1924H28.7324V32.6924ZM30.1094 32.6924L29.6402 32.8653L30.8121 36.044L31.2812 35.8711L31.7504 35.6981L30.5785 32.5194L30.1094 32.6924ZM31.2812 35.8711L30.8107 36.04C30.8532 36.1586 30.8928 36.2787 30.9293 36.4005L31.4082 36.2568L31.8871 36.1132C31.8455 35.9745 31.8004 35.8375 31.7518 35.7022L31.2812 35.8711ZM31.4082 36.2568L30.9293 36.4005C30.9635 36.5147 30.99 36.6239 31.0092 36.7283L31.501 36.6377L31.9927 36.5471C31.9664 36.4041 31.931 36.2594 31.8871 36.1132L31.4082 36.2568ZM31.501 36.6377V37.1377H31.5303V36.6377V36.1377H31.501V36.6377ZM31.5303 36.6377L32.022 36.7283C32.0419 36.6205 32.0676 36.5102 32.0994 36.3974L31.6182 36.2617L31.1369 36.126C31.0971 36.2671 31.0643 36.4075 31.0385 36.5471L31.5303 36.6377ZM31.6182 36.2617L32.0971 36.4054C32.1339 36.2825 32.1739 36.1595 32.217 36.0363L31.7451 35.8711L31.2732 35.7059C31.2252 35.8431 31.1805 35.9805 31.1393 36.118L31.6182 36.2617ZM31.7451 35.8711L32.2179 36.0338L33.3117 32.8551L32.8389 32.6924L32.3661 32.5297L31.2723 35.7084L31.7451 35.8711ZM32.8389 32.6924V33.1924H34.1328V32.6924V32.1924H32.8389V32.6924ZM34.1328 32.6924L33.6663 32.5126L31.3665 38.4794L31.833 38.6592L32.2996 38.839L34.5994 32.8722L34.1328 32.6924ZM31.833 38.6592L31.3666 38.479C31.2072 38.8917 31.0049 39.1781 30.776 39.3685L31.0957 39.7529L31.4154 40.1374C31.805 39.8134 32.0942 39.3706 32.2994 38.8393L31.833 38.6592ZM31.0957 39.7529L30.7736 39.3705C30.5673 39.5442 30.3008 39.6436 29.9385 39.6436V40.1436V40.6436C30.5007 40.6436 31.0056 40.4825 31.4178 40.1354L31.0957 39.7529ZM29.9385 40.1436V39.6436C29.8256 39.6436 29.7219 39.6344 29.6264 39.6172L29.5381 40.1094L29.4498 40.6015C29.6082 40.63 29.7714 40.6436 29.9385 40.6436V40.1436ZM29.5381 40.1094L29.6161 39.6155C29.5143 39.5994 29.4348 39.5795 29.3739 39.5586L29.2109 40.0312L29.0479 40.5039C29.1759 40.5481 29.3144 40.5803 29.4601 40.6033L29.5381 40.1094ZM34.0693 33.6641H33.5693V34.1641H34.0693V33.6641ZM34.0693 32.6924V32.1924H33.5693V32.6924H34.0693ZM37.3408 32.6924H37.8408V32.1924H37.3408V32.6924ZM37.3408 33.6641V34.1641H37.8408V33.6641H37.3408ZM34.9238 31.6084V31.1084H34.4238V31.6084H34.9238ZM36.291 31.6084H36.791V31.1084H36.291V31.6084ZM37.0625 37.0967L36.9501 36.6095L36.9458 36.6105L37.0625 37.0967ZM37.3066 37.0234H37.8066V36.3019L37.1311 36.5553L37.3066 37.0234ZM37.3066 38L37.523 38.4508L37.8066 38.3146V38H37.3066ZM36.9795 38.1025L36.8747 37.6136L36.8723 37.6142L36.9795 38.1025ZM35.3633 37.751L35.0288 38.1226L35.0308 38.1245L35.3633 37.751ZM34.0693 33.6641H34.5693V32.6924H34.0693H33.5693V33.6641H34.0693ZM34.0693 32.6924V33.1924H37.3408V32.6924V32.1924H34.0693V32.6924ZM37.3408 32.6924H36.8408V33.6641H37.3408H37.8408V32.6924H37.3408ZM37.3408 33.6641V33.1641H34.0693V33.6641V34.1641H37.3408V33.6641ZM34.9238 36.5107H35.4238V33.2344H34.9238H34.4238V36.5107H34.9238ZM34.9238 33.2344H35.4238V33.0928H34.9238H34.4238V33.2344H34.9238ZM34.9238 33.0928H35.4238V31.6084H34.9238H34.4238V33.0928H34.9238ZM34.9238 31.6084V32.1084H36.291V31.6084V31.1084H34.9238V31.6084ZM36.291 31.6084H35.791V36.501H36.291H36.791V31.6084H36.291ZM36.291 36.501H35.791C35.791 36.7669 35.8373 37.0892 36.0569 37.3251L36.4229 36.9844L36.7888 36.6437C36.8139 36.6706 36.8131 36.6859 36.8064 36.6612C36.7994 36.6358 36.791 36.5854 36.791 36.501H36.291ZM36.4229 36.9844L36.0569 37.3251C36.2699 37.5538 36.556 37.626 36.8184 37.626V37.126V36.626C36.7966 36.626 36.781 36.6245 36.7706 36.6229C36.7603 36.6213 36.756 36.6198 36.7562 36.6198C36.7566 36.62 36.7611 36.6217 36.7679 36.626C36.7748 36.6305 36.7821 36.6365 36.7888 36.6437L36.4229 36.9844ZM36.8184 37.126V37.626C36.9401 37.626 37.0607 37.6113 37.1792 37.5829L37.0625 37.0967L36.9458 36.6105C36.9016 36.6211 36.8593 36.626 36.8184 36.626V37.126ZM37.0625 37.0967L37.1749 37.5839C37.2801 37.5596 37.3827 37.5289 37.4822 37.4916L37.3066 37.0234L37.1311 36.5553C37.0744 36.5765 37.0141 36.5947 36.9501 36.6095L37.0625 37.0967ZM37.3066 37.0234H36.8066V38H37.3066H37.8066V37.0234H37.3066ZM37.3066 38L37.0903 37.5492C37.0583 37.5646 36.9915 37.5886 36.8747 37.6136L36.9795 38.1025L37.0843 38.5914C37.241 38.5579 37.3923 38.5135 37.523 38.4508L37.3066 38ZM36.9795 38.1025L36.8723 37.6142C36.7793 37.6346 36.6693 37.6465 36.54 37.6465V38.1465V38.6465C36.7298 38.6465 36.9127 38.6291 37.0867 38.5909L36.9795 38.1025ZM36.54 38.1465V37.6465C36.1448 37.6465 35.8805 37.5419 35.6957 37.3775L35.3633 37.751L35.0308 38.1245C35.4385 38.4873 35.9588 38.6465 36.54 38.6465V38.1465ZM35.3633 37.751L35.6978 37.3793C35.5489 37.2454 35.4238 36.9944 35.4238 36.5107H34.9238H34.4238C34.4238 37.1534 34.5917 37.7292 35.0288 38.1226L35.3633 37.751ZM38.6152 33.2979L38.264 32.942L38.2628 32.9432L38.6152 33.2979ZM42.6289 33.2979L42.2765 33.6525L42.2776 33.6537L42.6289 33.2979ZM42.6289 37.3945L42.2776 37.0387L42.2765 37.0398L42.6289 37.3945ZM38.6152 37.3945L38.2628 37.7492L38.264 37.7504L38.6152 37.3945ZM39.6113 36.6621L39.2093 36.9594L39.2108 36.9614L39.6113 36.6621ZM41.6377 36.6621L41.2377 36.3621L41.2372 36.3628L41.6377 36.6621ZM39.6113 34.0352L39.2113 33.7351L39.2093 33.7378L39.6113 34.0352ZM37.8584 35.4219H38.3584V35.2656H37.8584H37.3584V35.4219H37.8584ZM37.8584 35.2656H38.3584C38.3584 34.568 38.571 34.0466 38.9676 33.6525L38.6152 33.2979L38.2628 32.9432C37.6504 33.5517 37.3584 34.3421 37.3584 35.2656H37.8584ZM38.6152 33.2979L38.9665 33.6537C39.3651 33.2602 39.9013 33.0459 40.627 33.0459V32.5459V32.0459C39.6859 32.0459 38.881 32.3329 38.264 32.942L38.6152 33.2979ZM40.627 32.5459V33.0459C41.3488 33.0459 41.8812 33.2598 42.2765 33.6525L42.6289 33.2979L42.9813 32.9432C42.3675 32.3333 41.5653 32.0459 40.627 32.0459V32.5459ZM42.6289 33.2979L42.2776 33.6537C42.677 34.048 42.8906 34.569 42.8906 35.2656H43.3906H43.8906C43.8906 34.3412 43.5964 33.5503 42.9802 32.942L42.6289 33.2979ZM43.3906 35.2656H42.8906V35.4219H43.3906H43.8906V35.2656H43.3906ZM43.3906 35.4219H42.8906C42.8906 36.1224 42.6766 36.6448 42.2776 37.0387L42.6289 37.3945L42.9802 37.7504C43.5968 37.1416 43.8906 36.3489 43.8906 35.4219H43.3906ZM42.6289 37.3945L42.2765 37.0398C41.8812 37.4325 41.3488 37.6465 40.627 37.6465V38.1465V38.6465C41.5653 38.6465 42.3675 38.3591 42.9813 37.7492L42.6289 37.3945ZM40.627 38.1465V37.6465C39.9013 37.6465 39.3651 37.4322 38.9665 37.0387L38.6152 37.3945L38.264 37.7504C38.881 38.3595 39.6859 38.6465 40.627 38.6465V38.1465ZM38.6152 37.3945L38.9676 37.0398C38.5714 36.6461 38.3584 36.1234 38.3584 35.4219H37.8584H37.3584C37.3584 36.348 37.65 37.1403 38.2628 37.7492L38.6152 37.3945ZM39.2646 35.2412H38.7646V35.4512H39.2646H39.7646V35.2412H39.2646ZM39.2646 35.4512H38.7646C38.7646 36.0236 38.899 36.5399 39.2093 36.9594L39.6113 36.6621L40.0133 36.3648C39.8614 36.1593 39.7646 35.8684 39.7646 35.4512H39.2646ZM39.6113 36.6621L39.2108 36.9614C39.5518 37.4177 40.0512 37.626 40.627 37.626V37.126V36.626C40.3108 36.626 40.133 36.525 40.0118 36.3628L39.6113 36.6621ZM40.627 37.126V37.626C41.2009 37.626 41.6979 37.4167 42.0382 36.9614L41.6377 36.6621L41.2372 36.3628C41.1152 36.526 40.9384 36.626 40.627 36.626V37.126ZM41.6377 36.6621L42.0377 36.9621C42.3525 36.5423 42.4893 36.025 42.4893 35.4512H41.9893H41.4893C41.4893 35.8669 41.3916 36.1569 41.2377 36.3621L41.6377 36.6621ZM41.9893 35.4512H42.4893V35.2412H41.9893H41.4893V35.4512H41.9893ZM41.9893 35.2412H42.4893C42.4893 34.6698 42.3521 34.1544 42.0377 33.7352L41.6377 34.0352L41.2377 34.3352C41.392 34.5409 41.4893 34.8296 41.4893 35.2412H41.9893ZM41.6377 34.0352L42.0377 33.7352C41.6961 33.2797 41.2012 33.0664 40.627 33.0664V33.5664V34.0664C40.9316 34.0664 41.1105 34.1656 41.2377 34.3352L41.6377 34.0352ZM40.627 33.5664V33.0664C40.0509 33.0664 39.5537 33.2787 39.2113 33.7352L39.6113 34.0352L40.0113 34.3352C40.1377 34.1666 40.3176 34.0664 40.627 34.0664V33.5664ZM39.6113 34.0352L39.2093 33.7378C38.8994 34.1569 38.7646 34.6712 38.7646 35.2412H39.2646H39.7646C39.7646 34.8281 39.861 34.5385 40.0133 34.3325L39.6113 34.0352ZM43.6494 32.6924V32.1924H42.9164L43.1839 32.8748L43.6494 32.6924ZM45.0361 32.6924L45.5057 32.5205L45.3856 32.1924H45.0361V32.6924ZM46.2227 35.9346L46.6946 35.7694L46.6922 35.7627L46.2227 35.9346ZM46.3936 36.6133L45.8981 36.6802L45.9566 37.1133H46.3936V36.6133ZM46.4229 36.6133V37.1133H46.8614L46.9186 36.6785L46.4229 36.6133ZM46.4863 36.2812L46.9695 36.4101L46.9705 36.4062L46.4863 36.2812ZM46.5938 35.9346L46.1233 35.7652L46.1218 35.7694L46.5938 35.9346ZM47.7607 32.6924V32.1924H47.4093L47.2903 32.523L47.7607 32.6924ZM49.0449 32.6924L49.5104 32.8748L49.7779 32.1924H49.0449V32.6924ZM46.9648 38V38.5H47.3059L47.4304 38.1824L46.9648 38ZM45.7295 38L45.264 38.1824L45.3884 38.5H45.7295V38ZM43.6494 32.6924V33.1924H45.0361V32.6924V32.1924H43.6494V32.6924ZM45.0361 32.6924L44.5666 32.8642L45.7531 36.1064L46.2227 35.9346L46.6922 35.7627L45.5057 32.5205L45.0361 32.6924ZM46.2227 35.9346L45.7507 36.0997C45.7931 36.2207 45.8243 36.3224 45.8459 36.4062L46.3301 36.2812L46.8142 36.1563C46.7838 36.0383 46.7434 35.9089 46.6946 35.7694L46.2227 35.9346ZM46.3301 36.2812L45.8459 36.4062C45.8663 36.4852 45.884 36.5762 45.8981 36.6802L46.3936 36.6133L46.8891 36.5463C46.8706 36.4095 46.8459 36.2791 46.8142 36.1563L46.3301 36.2812ZM46.3936 36.6133V37.1133H46.4229V36.6133V36.1133H46.3936V36.6133ZM46.4229 36.6133L46.9186 36.6785C46.9327 36.5715 46.9501 36.4827 46.9694 36.4101L46.4863 36.2812L46.0032 36.1524C45.9705 36.2752 45.9456 36.4077 45.9271 36.5481L46.4229 36.6133ZM46.4863 36.2812L46.9705 36.4062C46.9921 36.3224 47.0234 36.2207 47.0657 36.0997L46.5938 35.9346L46.1218 35.7694C46.073 35.9089 46.0326 36.0383 46.0022 36.1563L46.4863 36.2812ZM46.5938 35.9346L47.0642 36.1039L48.2312 32.8617L47.7607 32.6924L47.2903 32.523L46.1233 35.7652L46.5938 35.9346ZM47.7607 32.6924V33.1924H49.0449V32.6924V32.1924H47.7607V32.6924ZM49.0449 32.6924L48.5794 32.5099L46.4993 37.8176L46.9648 38L47.4304 38.1824L49.5104 32.8748L49.0449 32.6924ZM46.9648 38V37.5H45.7295V38V38.5H46.9648V38ZM45.7295 38L46.195 37.8176L44.1149 32.5099L43.6494 32.6924L43.1839 32.8748L45.264 38.1824L45.7295 38ZM50.0508 33.3027L49.6926 32.9538L49.6915 32.955L50.0508 33.3027ZM53.8203 33.2539L53.4544 33.5946L53.8203 33.2539ZM54.4795 35.6855V36.1855H54.9795V35.6855H54.4795ZM50.2607 35.6855H49.7607V36.1855H50.2607V35.6855ZM50.2607 34.7822V34.2822H49.7607V34.7822H50.2607ZM53.1123 34.7822V35.2822H53.6493L53.611 34.7466L53.1123 34.7822ZM53.1074 34.7139H52.6074V34.7317L52.6087 34.7495L53.1074 34.7139ZM52.834 33.8936L52.4314 34.1902L52.4333 34.1927L52.834 33.8936ZM51.0078 34.0107L51.42 34.2938L51.4213 34.2919L51.0078 34.0107ZM51.0273 36.6768L50.6216 36.9689L50.6235 36.9716L51.0273 36.6768ZM52.8975 36.9551L53.1619 37.3794L53.1635 37.3784L52.8975 36.9551ZM53.4492 36.4521L53.7423 36.047L53.3386 35.755L53.0451 36.1577L53.4492 36.4521ZM54.3672 37.1162L54.7959 37.3735L55.032 36.98L54.6602 36.7111L54.3672 37.1162ZM49.3184 35.4219H49.8184V35.2656H49.3184H48.8184V35.4219H49.3184ZM49.3184 35.2656H49.8184C49.8184 34.571 50.0253 34.0481 50.4101 33.6504L50.0508 33.3027L49.6915 32.955C49.0997 33.5665 48.8184 34.3522 48.8184 35.2656H49.3184ZM50.0508 33.3027L50.4089 33.6516C50.7948 33.2556 51.2993 33.0459 51.9697 33.0459V32.5459V32.0459C51.0646 32.0459 50.2899 32.3408 49.6926 32.9538L50.0508 33.3027ZM51.9697 32.5459V33.0459C52.6597 33.0459 53.1307 33.247 53.4544 33.5946L53.8203 33.2539L54.1863 32.9132C53.631 32.3168 52.8683 32.0459 51.9697 32.0459V32.5459ZM53.8203 33.2539L53.4544 33.5946C53.7871 33.952 53.9795 34.4598 53.9795 35.1777H54.4795H54.9795C54.9795 34.2746 54.7325 33.4999 54.1863 32.9132L53.8203 33.2539ZM54.4795 35.1777H53.9795V35.6855H54.4795H54.9795V35.1777H54.4795ZM54.4795 35.6855V35.1855H50.2607V35.6855V36.1855H54.4795V35.6855ZM50.2607 35.6855H50.7607V34.7822H50.2607H49.7607V35.6855H50.2607ZM50.2607 34.7822V35.2822H53.1123V34.7822V34.2822H50.2607V34.7822ZM53.1123 34.7822L53.611 34.7466L53.6062 34.6782L53.1074 34.7139L52.6087 34.7495L52.6136 34.8179L53.1123 34.7822ZM53.1074 34.7139H53.6074C53.6074 34.3026 53.481 33.9243 53.2346 33.5944L52.834 33.8936L52.4333 34.1927C52.5516 34.351 52.6074 34.5197 52.6074 34.7139H53.1074ZM52.834 33.8936L53.2365 33.597C52.931 33.1823 52.4598 33.0225 51.9502 33.0225V33.5225V34.0225C52.2544 34.0225 52.3724 34.11 52.4315 34.1902L52.834 33.8936ZM51.9502 33.5225V33.0225C51.3844 33.0225 50.9125 33.2617 50.5943 33.7296L51.0078 34.0107L51.4213 34.2919C51.5459 34.1087 51.7022 34.0225 51.9502 34.0225V33.5225ZM51.0078 34.0107L50.5957 33.7277C50.3032 34.1534 50.1758 34.6697 50.1758 35.2412H50.6758H51.1758C51.1758 34.8166 51.2697 34.5126 51.42 34.2938L51.0078 34.0107ZM50.6758 35.2412H50.1758V35.4463H50.6758H51.1758V35.2412H50.6758ZM50.6758 35.4463H50.1758C50.1758 36.0211 50.3129 36.5401 50.6216 36.9689L51.0273 36.6768L51.4331 36.3846C51.2731 36.1623 51.1758 35.8611 51.1758 35.4463H50.6758ZM51.0273 36.6768L50.6235 36.9716C50.9729 37.4502 51.4943 37.665 52.0967 37.665V37.165V36.665C51.7486 36.665 51.557 36.5543 51.4312 36.382L51.0273 36.6768ZM52.0967 37.165V37.665C52.4834 37.665 52.8454 37.5767 53.1619 37.3794L52.8975 36.9551L52.633 36.5307C52.5003 36.6134 52.3284 36.665 52.0967 36.665V37.165ZM52.8975 36.9551L53.1635 37.3784C53.4381 37.2058 53.6713 36.9964 53.8533 36.7466L53.4492 36.4521L53.0451 36.1577C52.9472 36.2921 52.8126 36.4179 52.6314 36.5318L52.8975 36.9551ZM53.4492 36.4521L53.1562 36.8573L54.0741 37.5213L54.3672 37.1162L54.6602 36.7111L53.7423 36.047L53.4492 36.4521ZM54.3672 37.1162L53.9384 36.859C53.8352 37.031 53.6382 37.2164 53.293 37.3946L53.5225 37.8389L53.7519 38.2831C54.201 38.0512 54.5671 37.7548 54.7959 37.3735L54.3672 37.1162ZM53.5225 37.8389L53.293 37.3946C52.9814 37.5556 52.59 37.6465 52.1016 37.6465V38.1465V38.6465C52.7134 38.6465 53.2693 38.5323 53.7519 38.2831L53.5225 37.8389ZM52.1016 38.1465V37.6465C51.314 37.6465 50.7736 37.4251 50.4064 37.0431L50.0459 37.3896L49.6854 37.7362C50.2883 38.3633 51.1183 38.6465 52.1016 38.6465V38.1465ZM50.0459 37.3896L50.4064 37.0431C50.0246 36.6461 49.8184 36.1213 49.8184 35.4219H49.3184H48.8184C48.8184 36.337 49.0971 37.1241 49.6854 37.7362L50.0459 37.3896ZM55.4805 38H54.9805V38.5H55.4805V38ZM55.4805 32.6924V32.1924H54.9805V32.6924H55.4805ZM56.7695 32.6924L57.2685 32.6604L57.2386 32.1924H56.7695V32.6924ZM56.8086 33.3027L56.3096 33.3347L56.3396 33.8027H56.8086V33.3027ZM56.833 33.3027V33.8027H57.1209L57.2654 33.5538L56.833 33.3027ZM57.3066 32.7754L57.0087 32.3738L57.0056 32.3762L57.3066 32.7754ZM58.3809 32.6191H58.8809V32.2942L58.5839 32.1622L58.3809 32.6191ZM58.3809 33.7861L58.2828 34.2764L58.8809 34.396V33.7861H58.3809ZM58.1807 33.7568L58.1309 34.2544L58.1333 34.2546L58.1807 33.7568ZM57.2725 33.9619L57.567 34.366L57.5714 34.3627L57.2725 33.9619ZM56.8525 34.4941L56.3898 34.3048L56.3525 34.3958V34.4941H56.8525ZM56.8525 38V38.5H57.3525V38H56.8525ZM55.4805 38H55.9805V32.6924H55.4805H54.9805V38H55.4805ZM55.4805 32.6924V33.1924H56.7695V32.6924V32.1924H55.4805V32.6924ZM56.7695 32.6924L56.2706 32.7243L56.3096 33.3347L56.8086 33.3027L57.3076 33.2708L57.2685 32.6604L56.7695 32.6924ZM56.8086 33.3027V33.8027H56.833V33.3027V32.8027H56.8086V33.3027ZM56.833 33.3027L57.2654 33.5538C57.347 33.4133 57.4588 33.2869 57.6077 33.1746L57.3066 32.7754L57.0056 32.3762C56.7573 32.5634 56.5534 32.7885 56.4006 33.0517L56.833 33.3027ZM57.3066 32.7754L57.6046 33.1769C57.7158 33.0944 57.8429 33.0508 58.0049 33.0508V32.5508V32.0508C57.6396 32.0508 57.3011 32.1569 57.0087 32.3738L57.3066 32.7754ZM58.0049 32.5508V33.0508C58.0384 33.0508 58.076 33.0546 58.1184 33.0638L58.2246 32.5752L58.3308 32.0866C58.2235 32.0633 58.1146 32.0508 58.0049 32.0508V32.5508ZM58.2246 32.5752L58.1184 33.0638C58.1497 33.0706 58.1711 33.076 58.1845 33.0797C58.191 33.0815 58.1938 33.0825 58.1937 33.0825C58.1935 33.0824 58.1921 33.0819 58.1897 33.081C58.1873 33.0801 58.1832 33.0785 58.1778 33.076L58.3809 32.6191L58.5839 32.1622C58.5031 32.1263 58.4059 32.1029 58.3308 32.0866L58.2246 32.5752ZM58.3809 32.6191H57.8809V33.7861H58.3809H58.8809V32.6191H58.3809ZM58.3809 33.7861L58.4789 33.2958C58.3965 33.2794 58.3129 33.2672 58.2281 33.2591L58.1807 33.7568L58.1333 34.2546C58.1852 34.2595 58.235 34.2669 58.2828 34.2764L58.3809 33.7861ZM58.1807 33.7568L58.2304 33.2593C58.1454 33.2508 58.0551 33.2471 57.9609 33.2471V33.7471V34.2471C58.0295 34.2471 58.0857 34.2498 58.1309 34.2544L58.1807 33.7568ZM57.9609 33.7471V33.2471C57.5992 33.2471 57.2618 33.3462 56.9735 33.5611L57.2725 33.9619L57.5714 34.3627C57.6673 34.2912 57.7888 34.2471 57.9609 34.2471V33.7471ZM57.2725 33.9619L56.978 33.5578C56.7129 33.751 56.5136 34.0021 56.3898 34.3048L56.8525 34.4941L57.3153 34.6835C57.3672 34.5565 57.4479 34.4527 57.567 34.366L57.2725 33.9619ZM56.8525 34.4941H56.3525V38H56.8525H57.3525V34.4941H56.8525ZM56.8525 38V37.5H55.4805V38V38.5H56.8525V38Z" fill="white" fill-opacity="0.5" mask="url(#path-2-outside-1_5_107)"/>
<defs>
<clipPath id="clip0_5_107">
<rect width="42" height="49" fill="white"/>
</clipPath>
</defs>
</svg>
