{
	"asset":{
		"generator":"Khronos glTF Blender I/O v4.1.63",
		"version":"2.0"
	},
	"scene":0,
	"scenes":[
		{
			"name":"Scene",
			"nodes":[
				0,
				1,
				2
			]
		}
	],
	"nodes":[
		{
			"mesh":0,
			"name":"lightning-border",
			"rotation":[
				0,
				0.255977988243103,
				0,
				0.9666826128959656
			]
		},
		{
			"mesh":1,
			"name":"lightning-body",
			"rotation":[
				0,
				0.255977988243103,
				0,
				0.9666826128959656
			]
		},
		{
			"mesh":2,
			"name":"box",
			"rotation":[
				0.0010986620327457786,
				0,
				0,
				1
			]
		}
	],
	"meshes":[
		{
			"name":"lightning-border",
			"primitives":[
				{
					"attributes":{
						"POSITION":0,
						"NORMAL":1,
						"TEXCOORD_0":2
					},
					"indices":3
				}
			]
		},
		{
			"name":"lightning-body",
			"primitives":[
				{
					"attributes":{
						"POSITION":4,
						"NORMAL":5,
						"TEXCOORD_0":6
					},
					"indices":7
				}
			]
		},
		{
			"name":"box",
			"primitives":[
				{
					"attributes":{
						"POSITION":8,
						"NORMAL":9,
						"TEXCOORD_0":10
					},
					"indices":11
				}
			]
		}
	],
	"accessors":[
		{
			"bufferView":0,
			"componentType":5126,
			"count":4163,
			"max":[
				2.157996892929077,
				3.426145315170288,
				-0.2725825607776642
			],
			"min":[
				-2.2415361404418945,
				-2.972637414932251,
				-1.3036283254623413
			],
			"type":"VEC3"
		},
		{
			"bufferView":1,
			"componentType":5126,
			"count":4163,
			"type":"VEC3"
		},
		{
			"bufferView":2,
			"componentType":5126,
			"count":4163,
			"type":"VEC2"
		},
		{
			"bufferView":3,
			"componentType":5123,
			"count":20952,
			"type":"SCALAR"
		},
		{
			"bufferView":4,
			"componentType":5126,
			"count":1825,
			"max":[
				2.0532455444335938,
				3.273869037628174,
				-0.3548925817012787
			],
			"min":[
				-2.1367862224578857,
				-2.820284843444824,
				-1.2213176488876343
			],
			"type":"VEC3"
		},
		{
			"bufferView":5,
			"componentType":5126,
			"count":1825,
			"type":"VEC3"
		},
		{
			"bufferView":6,
			"componentType":5126,
			"count":1825,
			"type":"VEC2"
		},
		{
			"bufferView":7,
			"componentType":5123,
			"count":9384,
			"type":"SCALAR"
		},
		{
			"bufferView":8,
			"componentType":5126,
			"count":2658,
			"max":[
				3.4836068153381348,
				3.9204068183898926,
				1.8730601072311401
			],
			"min":[
				-3.4836068153381348,
				-3.0404863357543945,
				-3.068321943283081
			],
			"type":"VEC3"
		},
		{
			"bufferView":9,
			"componentType":5126,
			"count":2658,
			"type":"VEC3"
		},
		{
			"bufferView":10,
			"componentType":5126,
			"count":2658,
			"type":"VEC2"
		},
		{
			"bufferView":11,
			"componentType":5123,
			"count":13764,
			"type":"SCALAR"
		}
	],
	"bufferViews":[
		{
			"buffer":0,
			"byteLength":49956,
			"byteOffset":0,
			"target":34962
		},
		{
			"buffer":0,
			"byteLength":49956,
			"byteOffset":49956,
			"target":34962
		},
		{
			"buffer":0,
			"byteLength":33304,
			"byteOffset":99912,
			"target":34962
		},
		{
			"buffer":0,
			"byteLength":41904,
			"byteOffset":133216,
			"target":34963
		},
		{
			"buffer":0,
			"byteLength":21900,
			"byteOffset":175120,
			"target":34962
		},
		{
			"buffer":0,
			"byteLength":21900,
			"byteOffset":197020,
			"target":34962
		},
		{
			"buffer":0,
			"byteLength":14600,
			"byteOffset":218920,
			"target":34962
		},
		{
			"buffer":0,
			"byteLength":18768,
			"byteOffset":233520,
			"target":34963
		},
		{
			"buffer":0,
			"byteLength":31896,
			"byteOffset":252288,
			"target":34962
		},
		{
			"buffer":0,
			"byteLength":31896,
			"byteOffset":284184,
			"target":34962
		},
		{
			"buffer":0,
			"byteLength":21264,
			"byteOffset":316080,
			"target":34962
		},
		{
			"buffer":0,
			"byteLength":27528,
			"byteOffset":337344,
			"target":34963
		}
	],
	"buffers":[
		{
			"byteLength":364872,
			"uri":"devlog2.bin"
		}
	]
}
