{
	"asset":{
		"generator":"Khronos glTF Blender I/O v4.1.63",
		"version":"2.0"
	},
	"scene":0,
	"scenes":[
		{
			"name":"Scene",
			"nodes":[
				12
			]
		}
	],
	"nodes":[
		{
			"mesh":0,
			"name":"Buildings",
			"rotation":[
				0.2111366093158722,
				-0.3179505467414856,
				-0.5113158226013184,
				0.7699902057647705
			],
			"scale":[
				0.6463977694511414,
				0.6463976502418518,
				0.6463976502418518
			]
		},
		{
			"mesh":1,
			"name":"Clouds",
			"rotation":[
				-0.10545305162668228,
				0,
				0,
				0.9944242835044861
			],
			"scale":[
				0.6129012107849121,
				0.6129013895988464,
				0.6129012703895569
			]
		},
		{
			"mesh":2,
			"name":"Land",
			"rotation":[
				0,
				-0.23233762383460999,
				0,
				0.9726352095603943
			],
			"scale":[
				1.7729010581970215,
				1.7729014158248901,
				1.7729010581970215
			]
		},
		{
			"mesh":3,
			"name":"Mountain",
			"rotation":[
				0.553810715675354,
				-0.8266161680221558,
				-0.055658672004938126,
				0.08307565003633499
			],
			"scale":[
				0.403945654630661,
				0.40394559502601624,
				0.40394553542137146
			]
		},
		{
			"mesh":4,
			"name":"Mountain Snowy Top",
			"rotation":[
				0.6178104281425476,
				-0.7360365986824036,
				-0.17789065837860107,
				0.2119322568178177
			],
			"scale":[
				0.403945654630661,
				0.403945654630661,
				0.40394559502601624
			]
		},
		{
			"mesh":5,
			"name":"Ocean",
			"rotation":[
				0,
				-0.23233762383460999,
				0,
				0.9726352095603943
			],
			"scale":[
				1.7729010581970215,
				1.7729014158248901,
				1.7729010581970215
			]
		},
		{
			"mesh":6,
			"name":"Poles",
			"rotation":[
				0,
				-0.23233762383460999,
				0,
				0.9726352095603943
			],
			"scale":[
				1.7729010581970215,
				1.7729014158248901,
				1.7729010581970215
			]
		},
		{
			"mesh":7,
			"name":"Satelite Body",
			"rotation":[
				0.37947550415992737,
				-0.33453667163848877,
				-0.20332574844360352,
				0.8382971882820129
			],
			"scale":[
				0.27868178486824036,
				0.27868181467056274,
				0.27868178486824036
			],
			"translation":[
				2.792262554168701,
				3.131765842437744,
				-1.4510118961334229
			]
		},
		{
			"mesh":8,
			"name":"Satelite Bridge",
			"rotation":[
				-0.32443612813949585,
				-0.09278012067079544,
				-0.3803263306617737,
				0.8610951900482178
			],
			"scale":[
				0.4722297787666321,
				0.045578356832265854,
				0.22035273909568787
			],
			"translation":[
				2.792262554168701,
				3.131765842437744,
				-1.4510118961334229
			]
		},
		{
			"mesh":9,
			"name":"Satelite Solar Hinge",
			"rotation":[
				-0.32443609833717346,
				-0.09278006851673126,
				-0.3803263306617737,
				0.8610951900482178
			],
			"scale":[
				0.4722297489643097,
				0.4722297787666321,
				0.4722297787666321
			],
			"translation":[
				2.792262554168701,
				3.131765842437744,
				-1.4510118961334229
			]
		},
		{
			"mesh":10,
			"name":"Satelite Solar Panel",
			"rotation":[
				-0.32443612813949585,
				-0.09278014302253723,
				-0.3803263306617737,
				0.8610953092575073
			],
			"scale":[
				0.4722297787666321,
				0.048781488090753555,
				0.47222980856895447
			],
			"translation":[
				2.792262554168701,
				3.131765842437744,
				-1.4510118961334229
			]
		},
		{
			"mesh":11,
			"name":"Trees",
			"rotation":[
				0.5916470289230347,
				-0.26310133934020996,
				0.21272271871566772,
				0.7317654490470886
			],
			"scale":[
				0.15643775463104248,
				0.15643775463104248,
				0.15643779933452606
			]
		},
		{
			"children":[
				0,
				1,
				2,
				3,
				4,
				5,
				6,
				7,
				8,
				9,
				10,
				11
			],
			"name":"Earth Group"
		}
	],
	"meshes":[
		{
			"name":"Cube.046",
			"primitives":[
				{
					"attributes":{
						"POSITION":0
					},
					"indices":1
				}
			]
		},
		{
			"name":"Sphere.015",
			"primitives":[
				{
					"attributes":{
						"POSITION":2
					},
					"indices":3
				}
			]
		},
		{
			"name":"Roundcube.037",
			"primitives":[
				{
					"attributes":{
						"POSITION":4
					},
					"indices":5
				}
			]
		},
		{
			"name":"Cube.038",
			"primitives":[
				{
					"attributes":{
						"POSITION":6
					},
					"indices":7
				}
			]
		},
		{
			"name":"Cube.044",
			"primitives":[
				{
					"attributes":{
						"POSITION":8
					},
					"indices":9
				}
			]
		},
		{
			"name":"Roundcube.036",
			"primitives":[
				{
					"attributes":{
						"POSITION":10
					},
					"indices":11
				}
			]
		},
		{
			"name":"Roundcube.038",
			"primitives":[
				{
					"attributes":{
						"POSITION":12
					},
					"indices":13
				}
			]
		},
		{
			"name":"Cylinder.045",
			"primitives":[
				{
					"attributes":{
						"POSITION":14
					},
					"indices":15
				}
			]
		},
		{
			"name":"Cube.048",
			"primitives":[
				{
					"attributes":{
						"POSITION":16
					},
					"indices":17
				}
			]
		},
		{
			"name":"Cylinder.046",
			"primitives":[
				{
					"attributes":{
						"POSITION":18
					},
					"indices":19
				}
			]
		},
		{
			"name":"Cube.049",
			"primitives":[
				{
					"attributes":{
						"POSITION":20
					},
					"indices":21
				}
			]
		},
		{
			"name":"Cube.045",
			"primitives":[
				{
					"attributes":{
						"POSITION":22
					},
					"indices":23
				}
			]
		}
	],
	"accessors":[
		{
			"bufferView":0,
			"componentType":5126,
			"count":15846,
			"max":[
				1.2929058074951172,
				6.6608171463012695,
				0.30991068482398987
			],
			"min":[
				-1.1776659488677979,
				4.884027004241943,
				-0.8287027478218079
			],
			"type":"VEC3"
		},
		{
			"bufferView":1,
			"componentType":5123,
			"count":95040,
			"type":"SCALAR"
		},
		{
			"bufferView":2,
			"componentType":5126,
			"count":3696,
			"max":[
				6.336549758911133,
				7.924966335296631,
				3.152590036392212
			],
			"min":[
				-5.345940113067627,
				-6.157022476196289,
				-6.9730448722839355
			],
			"type":"VEC3"
		},
		{
			"bufferView":3,
			"componentType":5123,
			"count":22032,
			"type":"SCALAR"
		},
		{
			"bufferView":4,
			"componentType":5126,
			"count":1182,
			"max":[
				1.8420618772506714,
				1.4990358352661133,
				1.8627543449401855
			],
			"min":[
				-1.8218837976455688,
				-1.0576095581054688,
				-1.818002462387085
			],
			"type":"VEC3"
		},
		{
			"bufferView":5,
			"componentType":5123,
			"count":7056,
			"type":"SCALAR"
		},
		{
			"bufferView":6,
			"componentType":5126,
			"count":324,
			"max":[
				2.6588826179504395,
				9.84622859954834,
				2.0757105350494385
			],
			"min":[
				-2.1009387969970703,
				6.813043117523193,
				-3.820619583129883
			],
			"type":"VEC3"
		},
		{
			"bufferView":7,
			"componentType":5123,
			"count":1920,
			"type":"SCALAR"
		},
		{
			"bufferView":8,
			"componentType":5126,
			"count":224,
			"max":[
				0.7098500728607178,
				9.131989479064941,
				4.144860744476318
			],
			"min":[
				-3.3017449378967285,
				7.7158637046813965,
				-0.7229815125465393
			],
			"type":"VEC3"
		},
		{
			"bufferView":9,
			"componentType":5123,
			"count":1320,
			"type":"SCALAR"
		},
		{
			"bufferView":10,
			"componentType":5126,
			"count":386,
			"max":[
				1.7943414449691772,
				1.8035086393356323,
				1.7943414449691772
			],
			"min":[
				-1.7943414449691772,
				-1.8035086393356323,
				-1.7943414449691772
			],
			"type":"VEC3"
		},
		{
			"bufferView":11,
			"componentType":5123,
			"count":2304,
			"type":"SCALAR"
		},
		{
			"bufferView":12,
			"componentType":5126,
			"count":516,
			"max":[
				1.2645479440689087,
				1.8511512279510498,
				0.9114238023757935
			],
			"min":[
				-0.9088524580001831,
				-1.871349811553955,
				-0.8953820466995239
			],
			"type":"VEC3"
		},
		{
			"bufferView":13,
			"componentType":5123,
			"count":3072,
			"type":"SCALAR"
		},
		{
			"bufferView":14,
			"componentType":5126,
			"count":612,
			"max":[
				0.9950355887413025,
				2.6062705516815186,
				1.010385513305664
			],
			"min":[
				-0.995035707950592,
				-2.6062705516815186,
				-1.010385513305664
			],
			"type":"VEC3"
		},
		{
			"bufferView":15,
			"componentType":5123,
			"count":3660,
			"type":"SCALAR"
		},
		{
			"bufferView":16,
			"componentType":5126,
			"count":56,
			"max":[
				1,
				0.9999980926513672,
				1
			],
			"min":[
				-1,
				-1.0000019073486328,
				-1
			],
			"type":"VEC3"
		},
		{
			"bufferView":17,
			"componentType":5123,
			"count":324,
			"type":"SCALAR"
		},
		{
			"bufferView":18,
			"componentType":5126,
			"count":288,
			"max":[
				1.2813936471939087,
				0.2202444076538086,
				0.6059501767158508
			],
			"min":[
				-1.2813936471939087,
				-0.2202448844909668,
				-0.6059501767158508
			],
			"type":"VEC3"
		},
		{
			"bufferView":19,
			"componentType":5123,
			"count":1704,
			"type":"SCALAR"
		},
		{
			"bufferView":20,
			"componentType":5126,
			"count":936,
			"max":[
				3.7749834060668945,
				1,
				1
			],
			"min":[
				-3.7749834060668945,
				-1,
				-1
			],
			"type":"VEC3"
		},
		{
			"bufferView":21,
			"componentType":5123,
			"count":5592,
			"type":"SCALAR"
		},
		{
			"bufferView":22,
			"componentType":5126,
			"count":658,
			"max":[
				3.933762788772583,
				25.382354736328125,
				4.614627838134766
			],
			"min":[
				-4.314686298370361,
				19.551578521728516,
				-4.727078437805176
			],
			"type":"VEC3"
		},
		{
			"bufferView":23,
			"componentType":5123,
			"count":3612,
			"type":"SCALAR"
		}
	],
	"bufferViews":[
		{
			"buffer":0,
			"byteLength":190152,
			"byteOffset":0,
			"target":34962
		},
		{
			"buffer":0,
			"byteLength":190080,
			"byteOffset":190152,
			"target":34963
		},
		{
			"buffer":0,
			"byteLength":44352,
			"byteOffset":380232,
			"target":34962
		},
		{
			"buffer":0,
			"byteLength":44064,
			"byteOffset":424584,
			"target":34963
		},
		{
			"buffer":0,
			"byteLength":14184,
			"byteOffset":468648,
			"target":34962
		},
		{
			"buffer":0,
			"byteLength":14112,
			"byteOffset":482832,
			"target":34963
		},
		{
			"buffer":0,
			"byteLength":3888,
			"byteOffset":496944,
			"target":34962
		},
		{
			"buffer":0,
			"byteLength":3840,
			"byteOffset":500832,
			"target":34963
		},
		{
			"buffer":0,
			"byteLength":2688,
			"byteOffset":504672,
			"target":34962
		},
		{
			"buffer":0,
			"byteLength":2640,
			"byteOffset":507360,
			"target":34963
		},
		{
			"buffer":0,
			"byteLength":4632,
			"byteOffset":510000,
			"target":34962
		},
		{
			"buffer":0,
			"byteLength":4608,
			"byteOffset":514632,
			"target":34963
		},
		{
			"buffer":0,
			"byteLength":6192,
			"byteOffset":519240,
			"target":34962
		},
		{
			"buffer":0,
			"byteLength":6144,
			"byteOffset":525432,
			"target":34963
		},
		{
			"buffer":0,
			"byteLength":7344,
			"byteOffset":531576,
			"target":34962
		},
		{
			"buffer":0,
			"byteLength":7320,
			"byteOffset":538920,
			"target":34963
		},
		{
			"buffer":0,
			"byteLength":672,
			"byteOffset":546240,
			"target":34962
		},
		{
			"buffer":0,
			"byteLength":648,
			"byteOffset":546912,
			"target":34963
		},
		{
			"buffer":0,
			"byteLength":3456,
			"byteOffset":547560,
			"target":34962
		},
		{
			"buffer":0,
			"byteLength":3408,
			"byteOffset":551016,
			"target":34963
		},
		{
			"buffer":0,
			"byteLength":11232,
			"byteOffset":554424,
			"target":34962
		},
		{
			"buffer":0,
			"byteLength":11184,
			"byteOffset":565656,
			"target":34963
		},
		{
			"buffer":0,
			"byteLength":7896,
			"byteOffset":576840,
			"target":34962
		},
		{
			"buffer":0,
			"byteLength":7224,
			"byteOffset":584736,
			"target":34963
		}
	],
	"buffers":[
		{
			"byteLength":591960,
			"uri":"Earth.bin"
		}
	]
}
