{
	"asset":{
		"generator":"Khronos glTF Blender I/O v4.1.63",
		"version":"2.0"
	},
	"scene":0,
	"scenes":[
		{
			"name":"Scene",
			"nodes":[
				0,
				1
			]
		}
	],
	"nodes":[
		{
			"mesh":0,
			"name":"lightning-border"
		},
		{
			"mesh":1,
			"name":"lightning-body"
		}
	],
	"meshes":[
		{
			"name":"lightning-border",
			"primitives":[
				{
					"attributes":{
						"POSITION":0
					},
					"indices":1
				}
			]
		},
		{
			"name":"lightning-body",
			"primitives":[
				{
					"attributes":{
						"POSITION":2
					},
					"indices":3
				}
			]
		}
	],
	"accessors":[
		{
			"bufferView":0,
			"componentType":5126,
			"count":4154,
			"max":[
				2.157996892929077,
				3.426145315170288,
				-0.2725825607776642
			],
			"min":[
				-2.2415361404418945,
				-2.972637414932251,
				-1.3036283254623413
			],
			"type":"VEC3"
		},
		{
			"bufferView":1,
			"componentType":5123,
			"count":20952,
			"type":"SCALAR"
		},
		{
			"bufferView":2,
			"componentType":5126,
			"count":1822,
			"max":[
				2.0532455444335938,
				3.273869037628174,
				-0.3548925817012787
			],
			"min":[
				-2.1367862224578857,
				-2.820284843444824,
				-1.2213176488876343
			],
			"type":"VEC3"
		},
		{
			"bufferView":3,
			"componentType":5123,
			"count":9384,
			"type":"SCALAR"
		}
	],
	"bufferViews":[
		{
			"buffer":0,
			"byteLength":49848,
			"byteOffset":0,
			"target":34962
		},
		{
			"buffer":0,
			"byteLength":41904,
			"byteOffset":49848,
			"target":34963
		},
		{
			"buffer":0,
			"byteLength":21864,
			"byteOffset":91752,
			"target":34962
		},
		{
			"buffer":0,
			"byteLength":18768,
			"byteOffset":113616,
			"target":34963
		}
	],
	"buffers":[
		{
			"byteLength":132384,
			"uri":"lightning.bin"
		}
	]
}
