{
	"asset":{
		"generator":"Khronos glTF Blender I/O v4.1.63",
		"version":"2.0"
	},
	"scene":0,
	"scenes":[
		{
			"name":"Scene",
			"nodes":[
				9
			]
		}
	],
	"nodes":[
		{
			"mesh":0,
			"name":"Body",
			"scale":[
				1.3491982221603394,
				1.3491982221603394,
				1.3491978645324707
			],
			"translation":[
				0,
				0.7721410393714905,
				0
			]
		},
		{
			"mesh":1,
			"name":"Exhaust",
			"scale":[
				1.0506986379623413,
				1.0506985187530518,
				1.0506982803344727
			],
			"translation":[
				0,
				-0.9630359411239624,
				0
			]
		},
		{
			"mesh":2,
			"name":"Fins",
			"rotation":[
				0,
				0.9238795638084412,
				0,
				0.38268333673477173
			],
			"scale":[
				1.3491981029510498,
				1.3491982221603394,
				1.3491978645324707
			],
			"translation":[
				0,
				0.7721410393714905,
				0
			]
		},
		{
			"mesh":3,
			"name":"Fire",
			"rotation":[
				-0.7071066498756409,
				0,
				0,
				0.70710688829422
			],
			"scale":[
				0.3317960202693939,
				0.331795871257782,
				0.33179593086242676
			],
			"translation":[
				0,
				-2.23052716255188,
				0
			]
		},
		{
			"mesh":4,
			"name":"Head",
			"scale":[
				0.6812988519668579,
				0.6812987923622131,
				0.681298553943634
			],
			"translation":[
				0,
				2.833655834197998,
				0
			]
		},
		{
			"mesh":5,
			"name":"Scattered Fire",
			"rotation":[
				-0.70710688829422,
				0,
				0,
				0.7071066498756409
			],
			"scale":[
				1.349198341369629,
				1.3491978645324707,
				1.3491981029510498
			],
			"translation":[
				0,
				-2.23052716255188,
				0
			]
		},
		{
			"mesh":6,
			"name":"Screws",
			"rotation":[
				0.003404608927667141,
				-0.3826678693294525,
				-0.008219387382268906,
				0.9238431453704834
			],
			"scale":[
				1.3491981029510498,
				1.3491981029510498,
				1.3491981029510498
			],
			"translation":[
				0,
				0.7721407413482666,
				0
			]
		},
		{
			"mesh":7,
			"name":"Windows",
			"rotation":[
				0,
				-0.7071065902709961,
				0.7071069478988647,
				1.5619218629581155e-07
			],
			"scale":[
				1.349198341369629,
				1.3491978645324707,
				1.3491981029510498
			],
			"translation":[
				0,
				0.7721410393714905,
				0
			]
		},
		{
			"mesh":8,
			"name":"Windows Frame",
			"rotation":[
				0.70710688829422,
				0,
				0,
				0.7071066498756409
			],
			"scale":[
				1.3491982221603394,
				1.3491978645324707,
				1.3491981029510498
			],
			"translation":[
				0,
				0.7721410393714905,
				0
			]
		},
		{
			"children":[
				0,
				1,
				2,
				3,
				4,
				5,
				6,
				7,
				8
			],
			"name":"Rocket Group",
			"rotation":[
				0.21561886370182037,
				-0.07645945250988007,
				-0.5873326063156128,
				0.7763394117355347
			],
			"translation":[
				-2.5,
				0,
				0
			]
		}
	],
	"meshes":[
		{
			"name":"Cylinder.026",
			"primitives":[
				{
					"attributes":{
						"POSITION":0
					},
					"indices":1
				}
			]
		},
		{
			"name":"Circle",
			"primitives":[
				{
					"attributes":{
						"POSITION":2
					},
					"indices":3
				}
			]
		},
		{
			"name":"Cube.030",
			"primitives":[
				{
					"attributes":{
						"POSITION":4
					},
					"indices":5
				}
			]
		},
		{
			"name":"Roundcube.041",
			"primitives":[
				{
					"attributes":{
						"POSITION":6
					},
					"indices":7
				}
			]
		},
		{
			"name":"Roundcube.040",
			"primitives":[
				{
					"attributes":{
						"POSITION":8
					},
					"indices":9
				}
			]
		},
		{
			"name":"Roundcube.043",
			"primitives":[
				{
					"attributes":{
						"POSITION":10
					},
					"indices":11
				}
			]
		},
		{
			"name":"Circle.019",
			"primitives":[
				{
					"attributes":{
						"POSITION":12
					},
					"indices":13
				}
			]
		},
		{
			"name":"Cylinder.031",
			"primitives":[
				{
					"attributes":{
						"POSITION":14
					},
					"indices":15
				}
			]
		},
		{
			"name":"Cylinder.028",
			"primitives":[
				{
					"attributes":{
						"POSITION":16
					},
					"indices":17
				}
			]
		}
	],
	"accessors":[
		{
			"bufferView":0,
			"componentType":5126,
			"count":180,
			"max":[
				0.9823111891746521,
				1.2277647256851196,
				0.9974648952484131
			],
			"min":[
				-0.9823112487792969,
				-1.2277647256851196,
				-0.9974648952484131
			],
			"type":"VEC3"
		},
		{
			"bufferView":1,
			"componentType":5123,
			"count":1068,
			"type":"SCALAR"
		},
		{
			"bufferView":2,
			"componentType":5126,
			"count":288,
			"max":[
				1.017781376838684,
				0.19438308477401733,
				1.0177814960479736
			],
			"min":[
				-1.017781376838684,
				-0.49351534247398376,
				-1.017781376838684
			],
			"type":"VEC3"
		},
		{
			"bufferView":3,
			"componentType":5123,
			"count":1728,
			"type":"SCALAR"
		},
		{
			"bufferView":4,
			"componentType":5126,
			"count":872,
			"max":[
				1.6878917217254639,
				-0.0781419575214386,
				1.6878917217254639
			],
			"min":[
				-1.6878917217254639,
				-1.9592928886413574,
				-1.6878917217254639
			],
			"type":"VEC3"
		},
		{
			"bufferView":5,
			"componentType":5123,
			"count":5184,
			"type":"SCALAR"
		},
		{
			"bufferView":6,
			"componentType":5126,
			"count":98,
			"max":[
				2,
				2,
				2
			],
			"min":[
				-2,
				-2,
				-9.367737770080566
			],
			"type":"VEC3"
		},
		{
			"bufferView":7,
			"componentType":5123,
			"count":576,
			"type":"SCALAR"
		},
		{
			"bufferView":8,
			"componentType":5126,
			"count":105,
			"max":[
				2,
				3.648120403289795,
				2
			],
			"min":[
				-2,
				-0.6736364960670471,
				-2
			],
			"type":"VEC3"
		},
		{
			"bufferView":9,
			"componentType":5123,
			"count":618,
			"type":"SCALAR"
		},
		{
			"bufferView":10,
			"componentType":5126,
			"count":454,
			"max":[
				0.5747839212417603,
				0.6211782097816467,
				0.6936482191085815
			],
			"min":[
				-0.6211782693862915,
				-0.6122487187385559,
				-1.2835711240768433
			],
			"type":"VEC3"
		},
		{
			"bufferView":11,
			"componentType":5123,
			"count":2712,
			"type":"SCALAR"
		},
		{
			"bufferView":12,
			"componentType":5126,
			"count":3072,
			"max":[
				1.0866777896881104,
				1.630089521408081,
				1.1097339391708374
			],
			"min":[
				-1.1324388980865479,
				1.2042205333709717,
				-1.1097339391708374
			],
			"type":"VEC3"
		},
		{
			"bufferView":13,
			"componentType":5123,
			"count":18384,
			"type":"SCALAR"
		},
		{
			"bufferView":14,
			"componentType":5126,
			"count":144,
			"max":[
				0.3792813718318939,
				1.0511088371276855,
				-0.09629645943641663
			],
			"min":[
				-0.37928104400634766,
				-1.051108956336975,
				-0.8665605783462524
			],
			"type":"VEC3"
		},
		{
			"bufferView":15,
			"componentType":5123,
			"count":840,
			"type":"SCALAR"
		},
		{
			"bufferView":16,
			"componentType":5126,
			"count":360,
			"max":[
				0.4867786467075348,
				1.1166841983795166,
				0.01285944040864706
			],
			"min":[
				-0.48677900433540344,
				-1.1166844367980957,
				-0.9757164716720581
			],
			"type":"VEC3"
		},
		{
			"bufferView":17,
			"componentType":5123,
			"count":2136,
			"type":"SCALAR"
		}
	],
	"bufferViews":[
		{
			"buffer":0,
			"byteLength":2160,
			"byteOffset":0,
			"target":34962
		},
		{
			"buffer":0,
			"byteLength":2136,
			"byteOffset":2160,
			"target":34963
		},
		{
			"buffer":0,
			"byteLength":3456,
			"byteOffset":4296,
			"target":34962
		},
		{
			"buffer":0,
			"byteLength":3456,
			"byteOffset":7752,
			"target":34963
		},
		{
			"buffer":0,
			"byteLength":10464,
			"byteOffset":11208,
			"target":34962
		},
		{
			"buffer":0,
			"byteLength":10368,
			"byteOffset":21672,
			"target":34963
		},
		{
			"buffer":0,
			"byteLength":1176,
			"byteOffset":32040,
			"target":34962
		},
		{
			"buffer":0,
			"byteLength":1152,
			"byteOffset":33216,
			"target":34963
		},
		{
			"buffer":0,
			"byteLength":1260,
			"byteOffset":34368,
			"target":34962
		},
		{
			"buffer":0,
			"byteLength":1236,
			"byteOffset":35628,
			"target":34963
		},
		{
			"buffer":0,
			"byteLength":5448,
			"byteOffset":36864,
			"target":34962
		},
		{
			"buffer":0,
			"byteLength":5424,
			"byteOffset":42312,
			"target":34963
		},
		{
			"buffer":0,
			"byteLength":36864,
			"byteOffset":47736,
			"target":34962
		},
		{
			"buffer":0,
			"byteLength":36768,
			"byteOffset":84600,
			"target":34963
		},
		{
			"buffer":0,
			"byteLength":1728,
			"byteOffset":121368,
			"target":34962
		},
		{
			"buffer":0,
			"byteLength":1680,
			"byteOffset":123096,
			"target":34963
		},
		{
			"buffer":0,
			"byteLength":4320,
			"byteOffset":124776,
			"target":34962
		},
		{
			"buffer":0,
			"byteLength":4272,
			"byteOffset":129096,
			"target":34963
		}
	],
	"buffers":[
		{
			"byteLength":133368,
			"uri":"Rocket.bin"
		}
	]
}
