{
	"asset":{
		"generator":"Khronos glTF Blender I/O v4.1.63",
		"version":"2.0"
	},
	"scene":0,
	"scenes":[
		{
			"name":"Scene",
			"nodes":[
				0
			]
		}
	],
	"nodes":[
		{
			"mesh":0,
			"name":"Body.001"
		}
	],
	"meshes":[
		{
			"name":"Cylinder.003",
			"primitives":[
				{
					"attributes":{
						"POSITION":0
					},
					"indices":1
				}
			]
		}
	],
	"accessors":[
		{
			"bufferView":0,
			"componentType":5126,
			"count":5042,
			"max":[
				1.6806700229644775,
				4.5469746589660645,
				1.6806697845458984
			],
			"min":[
				-1.680668830871582,
				-6.11084508895874,
				-1.6806689500808716
			],
			"type":"VEC3"
		},
		{
			"bufferView":1,
			"componentType":5123,
			"count":28968,
			"type":"SCALAR"
		}
	],
	"bufferViews":[
		{
			"buffer":0,
			"byteLength":60504,
			"byteOffset":0,
			"target":34962
		},
		{
			"buffer":0,
			"byteLength":57936,
			"byteOffset":60504,
			"target":34963
		}
	],
	"buffers":[
		{
			"byteLength":118440,
			"uri":"Rocket2.bin"
		}
	]
}
