{
	"asset":{
		"generator":"Khronos glTF Blender I/O v4.1.63",
		"version":"2.0"
	},
	"scene":0,
	"scenes":[
		{
			"name":"Scene",
			"nodes":[
				6
			]
		}
	],
	"nodes":[
		{
			"mesh":0,
			"name":"Exhaust",
			"scale":[
				1.0506986379623413,
				1.0506985187530518,
				1.0506982803344727
			],
			"translation":[
				0,
				-0.9630359411239624,
				0
			]
		},
		{
			"mesh":1,
			"name":"Fins",
			"rotation":[
				0,
				0.9238795638084412,
				0,
				0.38268333673477173
			],
			"scale":[
				1.3491981029510498,
				1.3491982221603394,
				1.3491978645324707
			],
			"translation":[
				0,
				0.7721410393714905,
				0
			]
		},
		{
			"mesh":2,
			"name":"Fire",
			"rotation":[
				-0.7071066498756409,
				0,
				0,
				0.70710688829422
			],
			"scale":[
				0.3317960202693939,
				0.331795871257782,
				0.33179593086242676
			],
			"translation":[
				0,
				-2.23052716255188,
				0
			]
		},
		{
			"mesh":3,
			"name":"Head",
			"scale":[
				0.6812988519668579,
				0.6812987923622131,
				0.681298553943634
			],
			"translation":[
				0,
				2.833655834197998,
				0
			]
		},
		{
			"mesh":4,
			"name":"Screws",
			"rotation":[
				0.003404608927667141,
				-0.3826678693294525,
				-0.008219387382268906,
				0.9238431453704834
			],
			"scale":[
				1.3491981029510498,
				1.3491981029510498,
				1.3491981029510498
			],
			"translation":[
				0,
				0.7721407413482666,
				0
			]
		},
		{
			"mesh":5,
			"name":"Windows",
			"rotation":[
				0,
				-0.7071065902709961,
				0.7071069478988647,
				1.5619218629581155e-07
			],
			"scale":[
				1.349198341369629,
				1.3491978645324707,
				1.3491981029510498
			],
			"translation":[
				0,
				0.7721410393714905,
				0
			]
		},
		{
			"children":[
				0,
				1,
				2,
				3,
				4,
				5
			],
			"name":"Rocket Group",
			"rotation":[
				0.21561886370182037,
				-0.07645945250988007,
				-0.5873326063156128,
				0.7763394117355347
			],
			"translation":[
				-2.5,
				0,
				0
			]
		}
	],
	"meshes":[
		{
			"name":"Circle",
			"primitives":[
				{
					"attributes":{
						"POSITION":0
					},
					"indices":1
				}
			]
		},
		{
			"name":"Cube.030",
			"primitives":[
				{
					"attributes":{
						"POSITION":2
					},
					"indices":3
				}
			]
		},
		{
			"name":"Roundcube.041",
			"primitives":[
				{
					"attributes":{
						"POSITION":4
					},
					"indices":5
				}
			]
		},
		{
			"name":"Roundcube.040",
			"primitives":[
				{
					"attributes":{
						"POSITION":6
					},
					"indices":7
				}
			]
		},
		{
			"name":"Circle.019",
			"primitives":[
				{
					"attributes":{
						"POSITION":8
					},
					"indices":9
				}
			]
		},
		{
			"name":"Cylinder.031",
			"primitives":[
				{
					"attributes":{
						"POSITION":10
					},
					"indices":11
				}
			]
		}
	],
	"accessors":[
		{
			"bufferView":0,
			"componentType":5126,
			"count":50,
			"max":[
				1.017781376838684,
				0.19438308477401733,
				1.0177814960479736
			],
			"min":[
				-1.017781376838684,
				-0.493515282869339,
				-1.017781376838684
			],
			"type":"VEC3"
		},
		{
			"bufferView":1,
			"componentType":5123,
			"count":261,
			"type":"SCALAR"
		},
		{
			"bufferView":2,
			"componentType":5126,
			"count":565,
			"max":[
				1.6878914833068848,
				1.2277648448944092,
				1.6878914833068848
			],
			"min":[
				-1.6878914833068848,
				-1.9572608470916748,
				-1.6878914833068848
			],
			"type":"VEC3"
		},
		{
			"bufferView":3,
			"componentType":5123,
			"count":3210,
			"type":"SCALAR"
		},
		{
			"bufferView":4,
			"componentType":5126,
			"count":190,
			"max":[
				2.3080708980560303,
				2.3657357692718506,
				2.7356669902801514
			],
			"min":[
				-2.4938223361968994,
				-2.4896161556243896,
				-9.367737770080566
			],
			"type":"VEC3"
		},
		{
			"bufferView":5,
			"componentType":5123,
			"count":939,
			"type":"SCALAR"
		},
		{
			"bufferView":6,
			"componentType":5126,
			"count":290,
			"max":[
				2,
				3.648120403289795,
				2.211406707763672
			],
			"min":[
				-2,
				-3.051326274871826,
				-2.1692538261413574
			],
			"type":"VEC3"
		},
		{
			"bufferView":7,
			"componentType":5123,
			"count":1599,
			"type":"SCALAR"
		},
		{
			"bufferView":8,
			"componentType":5126,
			"count":595,
			"max":[
				1.0837737321853638,
				1.6291941404342651,
				1.1066598892211914
			],
			"min":[
				-1.1291959285736084,
				1.2052404880523682,
				-1.1066598892211914
			],
			"type":"VEC3"
		},
		{
			"bufferView":9,
			"componentType":5123,
			"count":3522,
			"type":"SCALAR"
		},
		{
			"bufferView":10,
			"componentType":5126,
			"count":88,
			"max":[
				0.3792813718318939,
				1.0511088371276855,
				-0.09629645943641663
			],
			"min":[
				-0.37928104400634766,
				-1.051108956336975,
				-0.8665605783462524
			],
			"type":"VEC3"
		},
		{
			"bufferView":11,
			"componentType":5123,
			"count":396,
			"type":"SCALAR"
		}
	],
	"bufferViews":[
		{
			"buffer":0,
			"byteLength":600,
			"byteOffset":0,
			"target":34962
		},
		{
			"buffer":0,
			"byteLength":522,
			"byteOffset":600,
			"target":34963
		},
		{
			"buffer":0,
			"byteLength":6780,
			"byteOffset":1124,
			"target":34962
		},
		{
			"buffer":0,
			"byteLength":6420,
			"byteOffset":7904,
			"target":34963
		},
		{
			"buffer":0,
			"byteLength":2280,
			"byteOffset":14324,
			"target":34962
		},
		{
			"buffer":0,
			"byteLength":1878,
			"byteOffset":16604,
			"target":34963
		},
		{
			"buffer":0,
			"byteLength":3480,
			"byteOffset":18484,
			"target":34962
		},
		{
			"buffer":0,
			"byteLength":3198,
			"byteOffset":21964,
			"target":34963
		},
		{
			"buffer":0,
			"byteLength":7140,
			"byteOffset":25164,
			"target":34962
		},
		{
			"buffer":0,
			"byteLength":7044,
			"byteOffset":32304,
			"target":34963
		},
		{
			"buffer":0,
			"byteLength":1056,
			"byteOffset":39348,
			"target":34962
		},
		{
			"buffer":0,
			"byteLength":792,
			"byteOffset":40404,
			"target":34963
		}
	],
	"buffers":[
		{
			"byteLength":41196,
			"uri":"Rocket.bin"
		}
	]
}
