<svg width="22" height="37" viewBox="0 0 22 37" fill="none" xmlns="http://www.w3.org/2000/svg">
<rect x="1.50586" y="0.841064" width="18.9895" height="35.7384" rx="3" fill="url(#paint0_linear_2294_11711)"/>
<path fill-rule="evenodd" clip-rule="evenodd" d="M4.59662 0.841148H17.4035C18.8669 0.841148 20.0532 1.97061 20.0532 3.36386V33.6364C20.0532 35.0297 18.8669 36.1591 17.4035 36.1591H4.59662C3.13324 36.1591 1.94692 35.0297 1.94692 33.6364V3.36386C1.94692 1.97061 3.13324 0.841148 4.59662 0.841148ZM1.06369 3.36386C1.06369 1.50619 2.64543 0.000244141 4.59662 0.000244141H17.4035C19.3547 0.000244141 20.9364 1.50619 20.9364 3.36386V9.67064C21.1804 9.67064 21.3781 9.85888 21.3781 10.0911V13.4547C21.3781 13.6869 21.1804 13.8752 20.9364 13.8752V33.6364C20.9364 35.4941 19.3547 37 17.4035 37H4.59662C2.64543 37 1.06369 35.4941 1.06369 33.6364V13.8752C0.819782 13.8752 0.62207 13.6869 0.62207 13.4547V10.932C0.62207 10.6998 0.819782 10.5115 1.06369 10.5115V10.0911C0.819782 10.0911 0.62207 9.90286 0.62207 9.67064V7.98883C0.62207 7.75662 0.819782 7.56838 1.06369 7.56838V7.14793C0.819782 7.14793 0.62207 6.95969 0.62207 6.72748V5.88657C0.62207 5.65436 0.819782 5.46612 1.06369 5.46612V3.36386ZM8.57117 1.68205C8.08336 1.68205 7.68794 2.05853 7.68794 2.52296C7.68794 2.98739 8.08336 3.36386 8.57117 3.36386H13.8706C14.3584 3.36386 14.7538 2.98739 14.7538 2.52296C14.7538 2.05853 14.3584 1.68205 13.8706 1.68205H8.57117Z" fill="#2D2D2D"/>
<g opacity="0.6" clip-path="url(#clip0_2294_11711)">
<path d="M13.3053 18.1234C13.2942 17.0582 14.2177 16.5473 14.259 16.5215C13.74 15.799 12.9313 15.6998 12.6436 15.6886C11.9559 15.6221 11.3012 16.0742 10.9524 16.0742C10.6042 16.0742 10.0653 15.6983 9.4951 15.7079C8.74501 15.7185 8.05363 16.1232 7.66764 16.7625C6.88864 18.0491 7.46835 19.9558 8.22742 21C8.59851 21.5104 9.04106 22.0847 9.62167 22.0637C10.1813 22.0426 10.3924 21.7191 11.0689 21.7191C11.7454 21.7191 11.9353 22.0637 12.5272 22.0529C13.129 22.0425 13.5105 21.5328 13.8786 21.0203C14.3046 20.4274 14.48 19.8532 14.4904 19.8242C14.4773 19.8184 13.3173 19.3953 13.3053 18.1234Z" fill="#DBDBDB"/>
<path d="M12.1933 14.9974C12.5012 14.6416 12.7098 14.1471 12.6531 13.6548C12.2087 13.6719 11.6708 13.936 11.3518 14.2915C11.066 14.607 10.8161 15.1094 10.883 15.5928C11.3787 15.6293 11.8843 15.3526 12.1933 14.9974Z" fill="#DBDBDB"/>
</g>
<defs>
<linearGradient id="paint0_linear_2294_11711" x1="1.50586" y1="18.7103" x2="20.4954" y2="18.7103" gradientUnits="userSpaceOnUse">
<stop stop-color="#F779B6"/>
<stop offset="1" stop-color="#912CE2"/>
</linearGradient>
<clipPath id="clip0_2294_11711">
<rect width="10.1782" height="9.69043" fill="white" transform="translate(5.44727 13.6548)"/>
</clipPath>
</defs>
</svg>
