<svg width="24" height="42" viewBox="0 0 24 42" fill="none" xmlns="http://www.w3.org/2000/svg">
<rect x="1.60156" y="1.26538" width="20.7978" height="39.4691" rx="1" fill="url(#paint0_linear_2276_11801)"/>
<path d="M21.1344 0.5H2.86567C1.56183 0.5 0.5 1.60167 0.5 2.95453V39.0455C0.5 40.3983 1.56178 41.5 2.86567 41.5H21.1325C22.4363 41.5 23.4982 40.3983 23.4982 39.0455L23.5 2.95453C23.5 1.60172 22.4383 0.5 21.1344 0.5ZM22.0917 39.0454C22.0917 39.5934 21.6625 40.0387 21.1344 40.0387H2.86567C2.33753 40.0387 1.90839 39.5934 1.90839 39.0454L1.91022 2.95448C1.91022 2.4065 2.33934 1.96124 2.86751 1.96124H21.1343C21.6625 1.96124 22.0916 2.40648 22.0916 2.95448L22.0917 39.0454Z" fill="#2D2D2D"/>
<g clip-path="url(#clip0_2276_11801)">
<path d="M13.302 16.8152L13.4087 16.6443L13.5135 16.4757L13.7493 16.0973C13.7781 16.0508 13.7664 15.9882 13.7233 15.9571C13.6794 15.926 13.6209 15.9385 13.5919 15.9853L13.3393 16.391L13.233 16.5615L13.1251 16.7343C12.7834 16.5926 12.4025 16.513 12.0001 16.513C11.5981 16.513 11.2172 16.5926 10.8755 16.7343L10.7682 16.5615L10.6619 16.391L10.4089 15.985C10.38 15.9385 10.3213 15.926 10.2776 15.9569C10.2343 15.9878 10.2226 16.0506 10.2515 16.0971L10.4871 16.4755L10.5923 16.6441L10.6989 16.815C9.89633 17.2149 9.35352 17.9725 9.35352 18.8396H14.6475C14.6475 17.9727 14.1046 17.2151 13.302 16.8152ZM10.8661 18.0305C10.7091 18.0305 10.5823 17.8946 10.5823 17.727C10.5823 17.5595 10.7091 17.4238 10.8661 17.4238C11.0227 17.4238 11.1495 17.5595 11.1495 17.727C11.1495 17.8946 11.0227 18.0305 10.8661 18.0305ZM13.1347 18.0305C12.9781 18.0305 12.8513 17.8946 12.8513 17.727C12.8513 17.5595 12.9781 17.4238 13.1347 17.4238C13.2917 17.4238 13.4185 17.5595 13.4185 17.727C13.4185 17.8946 13.2917 18.0305 13.1347 18.0305Z" fill="white" fill-opacity="0.6"/>
<path d="M9.39428 19.2444H9.35352V19.749V20.1608V23.6953C9.35352 24.0486 9.6219 24.336 9.95211 24.336H10.3843C10.3699 24.3894 10.3617 24.4459 10.3617 24.5044V24.5382V24.7404V25.786C10.3617 26.1209 10.6159 26.3929 10.9291 26.3929C11.2423 26.3929 11.4963 26.1209 11.4963 25.786V24.7404V24.5382V24.5044C11.4963 24.4461 11.4879 24.3894 11.4739 24.336H12.5271C12.5127 24.3894 12.5047 24.4459 12.5047 24.5044V24.5382V24.7404V25.786C12.5047 26.1209 12.7588 26.3929 13.0719 26.3929C13.3849 26.3929 13.6391 26.1209 13.6391 25.786V24.7404V24.5382V24.5044C13.6391 24.4461 13.6311 24.3894 13.6166 24.336H14.0487C14.3789 24.336 14.6475 24.0486 14.6475 23.6953V20.1608V19.749V19.2444H14.6067H9.39428Z" fill="white" fill-opacity="0.6"/>
<path d="M8.40704 19.2444C8.09379 19.2444 7.83984 19.5159 7.83984 19.8515V22.4475C7.83984 22.7824 8.09379 23.0543 8.40704 23.0543C8.72009 23.0543 8.97423 22.7824 8.97423 22.4475V19.8513C8.97423 19.5159 8.72028 19.2444 8.40704 19.2444Z" fill="white" fill-opacity="0.6"/>
<path d="M15.5926 19.2444C15.2791 19.2444 15.0254 19.5159 15.0254 19.8515V22.4475C15.0254 22.7824 15.2791 23.0543 15.5926 23.0543C15.9056 23.0543 16.1594 22.7824 16.1594 22.4475V19.8513C16.1594 19.5159 15.9056 19.2444 15.5926 19.2444Z" fill="white" fill-opacity="0.6"/>
</g>
<ellipse cx="12.0008" cy="3.79548" rx="1.03989" ry="1.01203" fill="black"/>
<defs>
<linearGradient id="paint0_linear_2276_11801" x1="1.60156" y1="20.9999" x2="22.3993" y2="20.9999" gradientUnits="userSpaceOnUse">
<stop stop-color="#41B993"/>
<stop offset="1" stop-color="#BCCB14" stop-opacity="0.81"/>
</linearGradient>
<clipPath id="clip0_2276_11801">
<rect width="8.31911" height="11.1323" fill="white" transform="translate(7.83984 15.9399)"/>
</clipPath>
</defs>
</svg>
