<svg width="50" height="32" viewBox="0 0 50 32" fill="none" xmlns="http://www.w3.org/2000/svg">
<g clip-path="url(#clip0_142_2944)">
<rect width="50" height="31" transform="translate(0 0.5)" fill="black" fill-opacity="0.2"/>
<path d="M2.61133 26.0376V2.82001C2.61133 1.89041 3.37293 1.14001 4.29133 1.14001H45.9217C46.8513 1.14001 47.6017 1.90161 47.6017 2.82001V26.0376" fill="url(#paint0_linear_142_2944)"/>
<path d="M2.61133 26.0376V2.82001C2.61133 1.89041 3.37293 1.14001 4.29133 1.14001H45.9217C46.8513 1.14001 47.6017 1.90161 47.6017 2.82001V26.0376" stroke="#2D2D2D" stroke-miterlimit="10"/>
<path d="M49.4253 28.6276H0.574219L2.00401 25.6489H48.2338L49.4253 28.6276Z" fill="#2D2D2D"/>
<path d="M47.8358 31.0106H2.16373C1.2948 31.0106 0.574219 31.0312 0.574219 30.0311V28.7336C0.574219 27.7213 1.2948 27.4362 2.16373 27.4362H25.1032L47.8358 27.4362C48.7153 27.4362 49.4253 27.4362 49.4253 28.7336V30.0312C49.4253 31.0106 48.7153 31.0106 47.8358 31.0106Z" fill="#4A4A4A"/>
<path d="M29.1676 29.8191H22.0245C21.3635 29.8191 20.8301 29.3753 20.8301 28.8254V28.4299C20.8301 27.8799 21.3635 27.4362 22.0245 27.4362H29.1676C29.8286 27.4362 30.362 27.8799 30.362 28.4299V28.8254C30.362 29.3753 29.8286 29.8191 29.1676 29.8191Z" fill="#5C5C5C"/>
<path d="M28.9704 13.6423C28.9556 12.0589 30.1809 11.2995 30.2357 11.2611C29.5471 10.1871 28.4742 10.0398 28.0924 10.023C27.1801 9.92415 26.3114 10.5962 25.8486 10.5962C25.3868 10.5962 24.6717 10.0375 23.9152 10.0517C22.92 10.0674 22.0027 10.6691 21.4906 11.6193C20.4571 13.5317 21.2262 16.3659 22.2333 17.9181C22.7256 18.6767 23.3128 19.5304 24.0831 19.4992C24.8256 19.4679 25.1057 18.987 26.0032 18.987C26.9007 18.987 27.1527 19.4992 27.9381 19.4832C28.7365 19.4677 29.2426 18.71 29.7309 17.9483C30.2962 17.0669 30.5289 16.2135 30.5427 16.1703C30.5253 16.1617 28.9863 15.5328 28.9704 13.6423Z" fill="#DBDBDB" fill-opacity="0.6"/>
<path d="M27.4951 8.99575C27.9036 8.46677 28.1804 7.73173 28.1051 7C27.5156 7.02541 26.8019 7.41795 26.3787 7.94643C25.9995 8.41545 25.6679 9.16217 25.7567 9.88069C26.4144 9.93506 27.0852 9.52372 27.4951 8.99575Z" fill="#DBDBDB" fill-opacity="0.6"/>
<rect x="23.5264" y="1.30701" width="3.92982" height="0.982456" rx="0.491228" fill="#2D2D2D"/>
</g>
<defs>
<linearGradient id="paint0_linear_142_2944" x1="2.61133" y1="13.5888" x2="47.6017" y2="13.5888" gradientUnits="userSpaceOnUse">
<stop stop-color="#F779B6"/>
<stop offset="1" stop-color="#912CE2"/>
</linearGradient>
<clipPath id="clip0_142_2944">
<rect width="50" height="31" fill="white" transform="translate(0 0.5)"/>
</clipPath>
</defs>
</svg>
