<svg width="24" height="24" viewBox="0 0 24 24" fill="none" xmlns="http://www.w3.org/2000/svg">
<path d="M9.25 5.125C9.25 7.40317 7.40317 9.25 5.125 9.25C2.84683 9.25 1 7.40317 1 5.125C1 2.84683 2.84683 1 5.125 1C7.40317 1 9.25 2.84683 9.25 5.125Z" stroke="white" stroke-opacity="0.3" stroke-width="1.5"/>
<path d="M23 18.875C23 21.1532 21.1532 23 18.875 23C16.5968 23 14.75 21.1532 14.75 18.875C14.75 16.5968 16.5968 14.75 18.875 14.75C21.1532 14.75 23 16.5968 23 18.875Z" stroke="white" stroke-opacity="0.3" stroke-width="1.5"/>
<path d="M14.75 3.75C14.75 2.23122 15.9812 1 17.5 1H20.25C21.7688 1 23 2.23122 23 3.75V6.5C23 8.01878 21.7688 9.25 20.25 9.25H17.5C15.9812 9.25 14.75 8.01878 14.75 6.5V3.75Z" stroke="white" stroke-opacity="0.3" stroke-width="1.5"/>
<path d="M1 17.5C1 15.9812 2.23122 14.75 3.75 14.75H6.5C8.01878 14.75 9.25 15.9812 9.25 17.5V20.25C9.25 21.7688 8.01878 23 6.5 23H3.75C2.23122 23 1 21.7688 1 20.25V17.5Z" stroke="white" stroke-opacity="0.3" stroke-width="1.5"/>
</svg>
