<svg width="34" height="22" viewBox="0 0 34 22" fill="none" xmlns="http://www.w3.org/2000/svg">
<path d="M33.1983 7.49452C33.6006 7.07881 33.6006 6.4048 33.1983 5.98909C32.7959 5.57339 32.1438 5.57339 31.7414 5.98909L33.1983 7.49452ZM27.7039 5.98909C27.3016 5.57339 26.6494 5.57339 26.2471 5.98909C25.8447 6.4048 25.8447 7.07881 26.2471 7.49452L27.7039 5.98909ZM30.7529 1.0645C30.7529 0.476597 30.2916 0 29.7227 0C29.1537 0 28.6925 0.476597 28.6925 1.0645H30.7529ZM28.6925 8.16113C28.6925 8.74903 29.1537 9.22563 29.7227 9.22563C30.2916 9.22563 30.7529 8.74903 30.7529 8.16113H28.6925ZM7.64267 7.30995C7.1875 6.95725 6.54178 7.05249 6.2004 7.52285C5.85902 7.99322 5.95127 8.66044 6.40644 9.01315L7.64267 7.30995ZM18.6314 9.01315C19.0866 8.66044 19.1788 7.99322 18.8374 7.52285C18.4961 7.05249 17.8504 6.95725 17.3952 7.30995L18.6314 9.01315ZM31.4223 9.32955L33.1983 7.49452L31.7414 5.98909L29.9655 7.82413L31.4223 9.32955ZM29.4798 7.82413L27.7039 5.98909L26.2471 7.49452L28.023 9.32955L29.4798 7.82413ZM28.6925 1.0645V8.16113H30.7529V1.0645H28.6925ZM29.9655 7.82413C29.8313 7.9627 29.614 7.9627 29.4798 7.82413L28.023 9.32955C28.9617 10.2995 30.4836 10.2995 31.4223 9.32955L29.9655 7.82413ZM5.65096 2.12942H19.3869V0.000426391H5.65096V2.12942ZM22.4774 5.3229V16.6775H24.5378V5.3229H22.4774ZM19.3869 19.871H5.65096V22H19.3869V19.871ZM2.56039 16.6775V5.3229H0.5V16.6775H2.56039ZM5.65096 19.871C3.94409 19.871 2.56039 18.4412 2.56039 16.6775H0.5C0.5 19.6171 2.80616 22 5.65096 22V19.871ZM22.4774 16.6775C22.4774 18.4412 21.0937 19.871 19.3869 19.871V22C22.2317 22 24.5378 19.6171 24.5378 16.6775H22.4774ZM19.3869 2.12942C21.0937 2.12942 22.4774 3.55919 22.4774 5.3229H24.5378C24.5378 2.38338 22.2317 0.000426391 19.3869 0.000426391V2.12942ZM5.65096 0.000426391C2.80616 0.000426391 0.5 2.38338 0.5 5.3229H2.56039C2.56039 3.55919 3.94409 2.12942 5.65096 2.12942V0.000426391ZM6.40644 9.01315L9.42834 11.355L10.6646 9.65184L7.64267 7.30995L6.40644 9.01315ZM15.6095 11.355L18.6314 9.01315L17.3952 7.30995L14.3733 9.65184L15.6095 11.355ZM9.42834 11.355C11.2598 12.7744 13.7781 12.7744 15.6095 11.355L14.3733 9.65184C13.2744 10.5034 11.7634 10.5034 10.6646 9.65184L9.42834 11.355Z" fill="white" fill-opacity="0.3"/>
</svg>
