<svg width="24" height="24" viewBox="0 0 24 24" fill="none" xmlns="http://www.w3.org/2000/svg">
<rect width="24" height="20.2105" rx="6" fill="white"/>
<rect x="0.5" y="0.5" width="23" height="19.2105" rx="5.5" stroke="white" stroke-opacity="0.3"/>
<mask id="path-3-inside-1_2250_11888" fill="white">
<path d="M0 6C0 2.68629 2.68629 0 6 0H18C21.3137 0 24 2.68629 24 6V18C24 21.3137 21.3137 24 18 24H6C2.68629 24 0 21.3137 0 18V6Z"/>
</mask>
<path d="M0 0H24H0ZM24 18C24 22.4183 20.4183 26 16 26H8C3.58172 26 0 22.4183 0 18C0 20.2091 2.68629 22 6 22H18C21.3137 22 24 20.2091 24 18ZM0 24V0V24ZM24 0V24V0Z" fill="white" mask="url(#path-3-inside-1_2250_11888)"/>
<path d="M5 12.3796C5 11.9654 5.33579 11.6296 5.75 11.6296H13.7552C14.0953 11.6296 14.3506 11.9407 14.2841 12.2743V12.2743C14.2703 12.3438 14.2703 12.4154 14.2841 12.485V12.485C14.3506 12.8186 14.0953 13.1296 13.7552 13.1296H5.75C5.33579 13.1296 5 12.7939 5 12.3796V12.3796Z" fill="#141416"/>
<ellipse cx="16.5785" cy="12.4444" rx="2.31579" ry="2.44444" fill="#141416"/>
<path d="M18.8945 7.37939C18.8945 6.96518 18.5587 6.62939 18.1445 6.62939H10.1394C9.7992 6.62939 9.54397 6.94045 9.6104 7.27407V7.27407C9.62425 7.3436 9.62425 7.41519 9.6104 7.48472V7.48472C9.54397 7.81834 9.7992 8.12939 10.1394 8.12939H18.1445C18.5587 8.12939 18.8945 7.79361 18.8945 7.37939V7.37939Z" fill="#141416"/>
<ellipse cx="2.31579" cy="2.44444" rx="2.31579" ry="2.44444" transform="matrix(-1 0 0 1 9.63184 5)" fill="#141416"/>
</svg>
