<svg width="390" height="326" viewBox="0 0 390 326" fill="none" xmlns="http://www.w3.org/2000/svg">
<g clip-path="url(#clip0_2152_7183)">
<path opacity="0.2" d="M51.2239 190.614L2.30939 296.853L895.229 307.153L825.997 168.517C815.049 146.593 792.648 132.741 768.142 132.741H711.007C693.868 132.741 677.43 125.937 665.305 113.825L565.773 14.4007C553.647 2.28824 537.209 -4.51538 520.07 -4.51538H467.733C450.594 -4.51538 434.156 2.28824 422.03 14.4007L368.3 68.0726C356.174 80.1851 339.736 86.9887 322.597 86.9887H263.502C246.363 86.9887 229.925 93.7924 217.799 105.905L189.598 134.076C177.473 146.188 161.035 152.992 143.896 152.992H109.965C84.7196 152.992 61.7822 167.683 51.2239 190.614Z" fill="#141416" stroke="white" stroke-width="0.588609"/>
<path d="M429.395 253.721L455.538 279.784H-257.268L-217.529 240.167C-205.572 228.246 -189.377 221.553 -172.493 221.553H-131.931C-121.328 221.553 -110.892 218.909 -101.567 213.862L39.7391 137.379C49.0641 132.331 59.5001 129.688 70.1034 129.688H98.5804C115.464 129.688 131.66 136.382 143.617 148.303L175.27 179.859C182.383 186.949 192.016 190.931 202.06 190.931C212.103 190.931 221.737 194.913 228.849 202.004L243.382 216.492C255.339 228.413 271.535 235.106 288.419 235.106H384.359C401.243 235.106 417.438 241.8 429.395 253.721Z" fill="#141416" stroke="white" stroke-opacity="0.2" stroke-width="0.588609"/>
<path d="M281.899 172.067H231.573L251.586 192.08H302.206L281.899 172.067Z" fill="#141416" stroke="white" stroke-width="0.588609"/>
<path d="M211.854 191.786V280.666H251.585V192.08L231.572 172.067L211.854 191.786Z" fill="#141416" stroke="white" stroke-width="0.588609"/>
<path d="M301.911 192.374V230.633H251.879V192.374H301.911Z" fill="#141416" stroke="white" stroke-width="0.588609"/>
<path d="M231.572 203.558C236.773 203.558 240.99 207.775 240.99 212.976V236.521H222.154V212.976C222.154 207.775 226.371 203.558 231.572 203.558Z" fill="#141416" stroke="white" stroke-width="0.588609"/>
<rect x="229.217" y="190.02" width="4.70887" height="4.70887" rx="2.35444" fill="#141416" stroke="white" stroke-width="0.588609"/>
<path d="M240.99 234.166H222.518L240.99 213.453V234.166Z" fill="#141416" stroke="white" stroke-width="0.588609"/>
<path d="M265.123 203.558C268.049 203.558 270.421 205.93 270.421 208.856V225.925H259.825V208.856C259.825 205.93 262.197 203.558 265.123 203.558Z" fill="#141416" stroke="white" stroke-width="0.588609"/>
<path d="M286.901 203.558C289.827 203.558 292.199 205.93 292.199 208.856V230.634H281.604V208.856C281.604 205.93 283.976 203.558 286.901 203.558Z" fill="#141416" stroke="white" stroke-width="0.588609"/>
<rect x="183.307" y="210.622" width="11.7722" height="67.1015" fill="#141416" stroke="white" stroke-width="0.588609"/>
<rect x="0.294305" y="-0.294305" width="14.1266" height="2.35444" transform="matrix(1 0 0 -1 181.835 209.739)" fill="#141416" stroke="white" stroke-width="0.588609"/>
<path d="M234.221 220.923H159.174L179.187 240.936H254.529L234.221 220.923Z" fill="#141416" stroke="white" stroke-width="0.588609"/>
<path d="M139.455 240.641V279.784H179.186V240.936L159.173 220.923L139.455 240.641Z" fill="#141416" stroke="white" stroke-width="0.588609"/>
<path d="M254.234 241.23V279.489H179.48V241.23H254.234Z" fill="#141416" stroke="white" stroke-width="0.588609"/>
<path d="M159.174 252.413C162.1 252.413 164.472 254.785 164.472 257.711V268.894H153.876V257.711C153.876 254.785 156.248 252.413 159.174 252.413Z" fill="#141416" stroke="white" stroke-width="0.588609"/>
<path d="M192.725 252.413C195.65 252.413 198.022 254.785 198.022 257.711V268.894H187.427V257.711C187.427 254.785 189.799 252.413 192.725 252.413Z" fill="#141416" stroke="white" stroke-width="0.588609"/>
<path d="M236.281 252.413C239.207 252.413 241.579 254.785 241.579 257.711V268.894H230.983V257.711C230.983 254.785 233.356 252.413 236.281 252.413Z" fill="#141416" stroke="white" stroke-width="0.588609"/>
<path d="M214.504 252.413C217.43 252.413 219.802 254.785 219.802 257.711V279.489H209.206V257.711C209.206 254.785 211.578 252.413 214.504 252.413Z" fill="#141416" stroke="white" stroke-width="0.588609"/>
<rect x="187.427" y="265.951" width="10.595" height="2.94305" fill="#141416" stroke="white" stroke-width="0.588609"/>
<rect x="153.876" y="265.951" width="10.595" height="2.94305" fill="#141416" stroke="white" stroke-width="0.588609"/>
<rect x="230.984" y="265.951" width="10.595" height="2.94305" fill="#141416" stroke="white" stroke-width="0.588609"/>
<path d="M325.455 221.51H250.407L270.42 241.523H345.762L325.455 221.51Z" fill="#141416" stroke="white" stroke-width="0.588609"/>
<path d="M230.688 241.229V280.372H270.42V241.523L250.407 221.511L230.688 241.229Z" fill="#141416" stroke="white" stroke-width="0.588609"/>
<path d="M345.468 241.817V280.077H270.714V241.817H345.468Z" fill="#141416" stroke="white" stroke-width="0.588609"/>
<path d="M250.407 253.001C253.333 253.001 255.705 255.373 255.705 258.299V269.482H245.109V258.299C245.109 255.373 247.482 253.001 250.407 253.001Z" fill="#141416" stroke="white" stroke-width="0.588609"/>
<path d="M283.958 253.001C286.884 253.001 289.256 255.373 289.256 258.299V269.482H278.66V258.299C278.66 255.373 281.032 253.001 283.958 253.001Z" fill="#141416" stroke="white" stroke-width="0.588609"/>
<path d="M327.516 253.001C330.441 253.001 332.813 255.373 332.813 258.299V269.482H322.218V258.299C322.218 255.373 324.59 253.001 327.516 253.001Z" fill="#141416" stroke="white" stroke-width="0.588609"/>
<path d="M305.737 253.001C308.663 253.001 311.035 255.373 311.035 258.299V280.077H300.439V258.299C300.439 255.373 302.812 253.001 305.737 253.001Z" fill="#141416" stroke="white" stroke-width="0.588609"/>
<rect x="278.661" y="266.539" width="10.595" height="2.94305" fill="#141416" stroke="white" stroke-width="0.588609"/>
<rect x="245.11" y="266.539" width="10.595" height="2.94305" fill="#141416" stroke="white" stroke-width="0.588609"/>
<rect x="322.218" y="266.539" width="10.595" height="2.94305" fill="#141416" stroke="white" stroke-width="0.588609"/>
<path d="M225.23 279.783L232.719 248.587L240.138 279.783H225.23Z" fill="#141416" stroke="white" stroke-width="0.588609"/>
<path d="M232.685 279.783L238.37 256.317L244.004 279.783H232.685Z" fill="#141416" stroke="white" stroke-width="0.588609"/>
<path d="M223.038 280.372L225.403 270.365L227.747 280.372H223.038Z" fill="#141416" stroke="white" stroke-width="0.588609"/>
<circle cx="135.336" cy="278.016" r="13.2437" fill="#141416" stroke="white" stroke-width="0.588609"/>
<circle cx="119.148" cy="279.487" r="7.06331" fill="#141416" stroke="white" stroke-width="0.588609"/>
<circle cx="150.933" cy="278.31" r="4.12026" fill="#141416" stroke="white" stroke-width="0.588609"/>
<rect x="358.614" y="154.116" width="1.76583" height="125.374" rx="0.882914" fill="#141416" stroke="white" stroke-width="0.588609"/>
<circle cx="359.496" cy="148.524" r="2.06013" fill="#141416" stroke="white" stroke-width="0.588609"/>
<path d="M356.552 141.46L358.318 143.226H360.672L362.438 141.46L359.495 94.3716L356.552 141.46Z" fill="#141416" stroke="white" stroke-width="0.588609"/>
<path d="M354.849 154.603L355.496 152.191L354.319 150.152L351.906 149.506L312.598 175.599L354.849 154.603Z" fill="#141416" stroke="white" stroke-width="0.588609"/>
<path d="M367.188 149.701L364.776 150.348L363.598 152.387L364.245 154.799L406.496 175.794L367.188 149.701Z" fill="#141416" stroke="white" stroke-width="0.588609"/>
<circle cx="324.278" cy="280.371" r="16.1868" fill="#141416" stroke="white" stroke-width="0.588609"/>
<path d="M303.971 273.014C307.861 273.014 311.034 276.297 311.034 280.372C311.034 284.446 307.861 287.729 303.971 287.729C300.081 287.729 296.907 284.446 296.907 280.372C296.907 276.298 300.081 273.014 303.971 273.014Z" fill="#141416" stroke="white" stroke-width="0.588609"/>
<path d="M373.864 280.371L360.676 226.138L347.609 280.371H373.864Z" fill="#141416" stroke="white" stroke-width="0.351603"/>
<path d="M360.521 280.372L344.09 211.504L327.81 280.372H360.521Z" fill="#141416" stroke="white" stroke-width="0.588609"/>
<circle cx="22.1945" cy="22.1945" r="21.9002" transform="matrix(-1 0 0 1 397.509 258.004)" fill="#141416" stroke="white" stroke-width="0.588609"/>
<rect x="-166.328" y="279.489" width="864.078" height="80.0508" fill="#141416" stroke="#141416" stroke-width="0.588609"/>
</g>
<defs>
<clipPath id="clip0_2152_7183">
<rect width="465.515" height="430.027" fill="white" transform="translate(-9.51465 -70.4395)"/>
</clipPath>
</defs>
</svg>
