<svg width="96" height="96" viewBox="0 0 96 96" fill="none" xmlns="http://www.w3.org/2000/svg">
<g filter="url(#filter0_d_25_98)">
<path d="M17.7753 42.5772C17.7707 42.5511 17.7704 42.5259 17.7743 42.5027C18.513 38.1078 18.4799 33.259 17.5598 28.06C16.6374 22.848 14.8937 17.6843 12.4919 12.7239C12.4919 12.7239 12.3779 12.506 12.442 12.442C12.5061 12.3779 12.7239 12.4919 12.7239 12.4919C17.6845 14.8938 22.8478 16.6373 28.0601 17.5598C33.259 18.4799 38.1078 18.513 42.5027 17.7742C42.526 17.7703 42.5511 17.7707 42.5772 17.7753C42.7102 17.7988 42.8371 17.9258 42.8607 18.0588L42.8614 18.0631C42.8661 18.0897 42.8665 18.1152 42.8625 18.1389C42.2108 22.0192 42.1602 26.2536 42.7907 30.7699C44.2515 41.2335 54.7948 51.7762 65.2586 53.2378C69.7773 53.8689 74.0134 53.8193 77.8952 53.1668C77.9185 53.1629 77.9436 53.1632 77.9697 53.1678C78.1027 53.1914 78.2296 53.3183 78.2532 53.4513L78.254 53.4556C78.2586 53.4822 78.259 53.5078 78.255 53.5315C77.5172 57.9248 77.549 62.7717 78.4687 67.9684C79.3886 73.1661 81.1254 78.315 83.517 83.2629C83.5298 83.2894 83.5387 83.3164 83.5434 83.3428C83.5672 83.4774 83.4761 83.567 83.3415 83.5431C83.315 83.5384 83.2877 83.5294 83.261 83.5165C78.3137 81.1255 73.1655 79.3885 67.9685 78.4687C62.7714 77.5489 57.925 77.517 53.5315 78.255C53.5078 78.259 53.4822 78.2586 53.4556 78.2539L53.4513 78.2532C53.3183 78.2296 53.1914 78.1027 53.1678 77.9697C53.1632 77.9436 53.1629 77.9185 53.1668 77.8952C53.8193 74.0134 53.869 69.7772 53.2378 65.2586C51.7763 54.7948 41.2336 44.2516 30.7699 42.7907C26.2533 42.1601 22.0194 42.2107 18.1389 42.8625C18.1153 42.8665 18.0897 42.8661 18.0631 42.8614L18.0588 42.8606C17.9258 42.8371 17.7989 42.7102 17.7753 42.5772Z" fill="white"/>
</g>
<g filter="url(#filter1_d_25_98)">
<path d="M53.3669 17.7753C53.393 17.7707 53.4182 17.7704 53.4414 17.7743C57.8363 18.513 62.6851 18.4799 67.8841 17.5598C73.0961 16.6374 78.2598 14.8937 83.2202 12.4919C83.2202 12.4919 83.4381 12.3779 83.5021 12.442C83.5662 12.5061 83.4522 12.7239 83.4522 12.7239C81.0503 17.6845 79.3068 22.8478 78.3843 28.0601C77.4642 33.259 77.4311 38.1078 78.1698 42.5027C78.1738 42.526 78.1734 42.5511 78.1688 42.5772C78.1453 42.7102 78.0183 42.8371 77.8853 42.8607L77.881 42.8614C77.8544 42.8661 77.8289 42.8665 77.8052 42.8625C73.9249 42.2108 69.6905 42.1602 65.1742 42.7907C54.7106 44.2515 44.1678 54.7948 42.7063 65.2586C42.0751 69.7773 42.1248 74.0134 42.7773 77.8952C42.7812 77.9185 42.7809 77.9436 42.7763 77.9697C42.7527 78.1027 42.6258 78.2296 42.4928 78.2532L42.4884 78.254C42.4619 78.2586 42.4363 78.259 42.4126 78.255C38.0193 77.5172 33.1724 77.549 27.9756 78.4687C22.778 79.3886 17.6291 81.1254 12.6812 83.517C12.6547 83.5298 12.6277 83.5387 12.6013 83.5434C12.4667 83.5672 12.3771 83.4761 12.401 83.3415C12.4057 83.315 12.4147 83.2877 12.4275 83.261C14.8186 78.3137 16.5556 73.1655 17.4754 67.9685C18.3952 62.7714 18.4271 57.925 17.6891 53.5315C17.6851 53.5078 17.6855 53.4822 17.6902 53.4556L17.6909 53.4513C17.7145 53.3183 17.8414 53.1914 17.9744 53.1678C18.0005 53.1632 18.0256 53.1629 18.0489 53.1668C21.9307 53.8193 26.1669 53.869 30.6855 53.2378C41.1493 51.7763 51.6925 41.2336 53.1534 30.7699C53.784 26.2533 53.7334 22.0194 53.0816 18.1389C53.0776 18.1153 53.078 18.0897 53.0827 18.0631L53.0835 18.0588C53.107 17.9258 53.2339 17.7989 53.3669 17.7753Z" fill="white"/>
</g>
<defs>
<filter id="filter0_d_25_98" x="8.42246" y="12.4224" width="79.1247" height="79.1246" filterUnits="userSpaceOnUse" color-interpolation-filters="sRGB">
<feFlood flood-opacity="0" result="BackgroundImageFix"/>
<feColorMatrix in="SourceAlpha" type="matrix" values="0 0 0 0 0 0 0 0 0 0 0 0 0 0 0 0 0 0 127 0" result="hardAlpha"/>
<feOffset dy="4"/>
<feGaussianBlur stdDeviation="2"/>
<feComposite in2="hardAlpha" operator="out"/>
<feColorMatrix type="matrix" values="0 0 0 0 0 0 0 0 0 0 0 0 0 0 0 0 0 0 0.25 0"/>
<feBlend mode="normal" in2="BackgroundImageFix" result="effect1_dropShadow_25_98"/>
<feBlend mode="normal" in="SourceGraphic" in2="effect1_dropShadow_25_98" result="shape"/>
</filter>
<filter id="filter1_d_25_98" x="8.39712" y="12.4225" width="79.1246" height="79.1247" filterUnits="userSpaceOnUse" color-interpolation-filters="sRGB">
<feFlood flood-opacity="0" result="BackgroundImageFix"/>
<feColorMatrix in="SourceAlpha" type="matrix" values="0 0 0 0 0 0 0 0 0 0 0 0 0 0 0 0 0 0 127 0" result="hardAlpha"/>
<feOffset dy="4"/>
<feGaussianBlur stdDeviation="2"/>
<feComposite in2="hardAlpha" operator="out"/>
<feColorMatrix type="matrix" values="0 0 0 0 0 0 0 0 0 0 0 0 0 0 0 0 0 0 0.25 0"/>
<feBlend mode="normal" in2="BackgroundImageFix" result="effect1_dropShadow_25_98"/>
<feBlend mode="normal" in="SourceGraphic" in2="effect1_dropShadow_25_98" result="shape"/>
</filter>
</defs>
</svg>
