<svg width="34" height="22" viewBox="0 0 34 22" fill="none" xmlns="http://www.w3.org/2000/svg">
<path fill-rule="evenodd" clip-rule="evenodd" d="M27.4338 6.82949L28.4684 7.90899V1.625C28.4684 1.00368 28.9512 0.5 29.5466 0.5C30.1421 0.5 30.6248 1.00368 30.6248 1.625V7.90899L31.6595 6.82949C32.0806 6.39016 32.7631 6.39016 33.1842 6.82949C33.6053 7.26883 33.6053 7.98114 33.1842 8.42048L31.3255 10.3598C30.3431 11.3849 28.7502 11.3849 27.7678 10.3598L25.9091 8.42048C25.488 7.98114 25.488 7.26883 25.9091 6.82949C26.3302 6.39016 27.0127 6.39016 27.4338 6.82949ZM0.5 5.00003C0.5 2.51472 2.43091 0.5 4.8128 0.5H19.1888C21.5708 0.5 23.5016 2.51472 23.5016 5.00003V17C23.5016 19.4852 21.5708 21.5 19.1888 21.5H4.8128C2.43091 21.5 0.5 19.4852 0.5 17V5.00003ZM5.38785 7.32503C5.74514 6.82793 6.42095 6.72728 6.89733 7.10003L10.0601 9.57502C11.2101 10.475 12.7915 10.475 13.9416 9.57502L17.1043 7.10003C17.5807 6.72728 18.2565 6.82793 18.6138 7.32503C18.971 7.82213 18.8745 8.52728 18.3981 8.90002L15.2354 11.375C13.3186 12.875 10.683 12.875 8.76621 11.375L5.60349 8.90002C5.12712 8.52728 5.03058 7.82213 5.38785 7.32503Z" fill="white"/>
</svg>
