<svg width="22" height="22" viewBox="0 0 22 22" fill="none" xmlns="http://www.w3.org/2000/svg">
<g clip-path="url(#clip0_2250_11989)">
<path fill-rule="evenodd" clip-rule="evenodd" d="M4.125 8.25C6.40317 8.25 8.25 6.40317 8.25 4.125C8.25 1.84683 6.40317 0 4.125 0C1.84683 0 0 1.84683 0 4.125C0 6.40317 1.84683 8.25 4.125 8.25ZM17.875 22C20.1532 22 22 20.1532 22 17.875C22 15.5968 20.1532 13.75 17.875 13.75C15.5968 13.75 13.75 15.5968 13.75 17.875C13.75 20.1532 15.5968 22 17.875 22ZM13.75 2.75C13.75 1.23122 14.9812 0 16.5 0H19.25C20.7688 0 22 1.23122 22 2.75V5.5C22 7.01878 20.7688 8.25 19.25 8.25H16.5C14.9812 8.25 13.75 7.01878 13.75 5.5V2.75ZM2.75 13.75C1.23122 13.75 0 14.9812 0 16.5V19.25C0 20.7688 1.23122 22 2.75 22H5.5C7.01878 22 8.25 20.7688 8.25 19.25V16.5C8.25 14.9812 7.01878 13.75 5.5 13.75H2.75Z" fill="white"/>
</g>
<defs>
<clipPath id="clip0_2250_11989">
<rect width="22" height="22" fill="white"/>
</clipPath>
</defs>
</svg>
