<svg width="24" height="24" viewBox="0 0 24 24" fill="none" xmlns="http://www.w3.org/2000/svg">
<path d="M2 6.375V17.625C2 18.5414 2.35152 19.3725 2.9221 19.9806L6.27081 12.4224C6.96597 10.7973 8.51706 9.75 10.2287 9.75H19.3247V8.625C19.3247 6.76104 17.8704 5.25 16.0763 5.25H12.7227C12.1448 5.25 11.5773 5.0898 11.0788 4.78592L8.91049 3.46408C8.41201 3.1602 7.84453 3 7.26659 3H5.24839C3.45435 3 2 4.51104 2 6.375Z" fill="#28303F"/>
<path opacity="0.4" d="M10.2285 9.75C8.51683 9.75 6.96575 10.7973 6.27059 12.4224L2.92188 19.9806C3.51188 20.6095 4.33613 21 5.24816 21H14.7067C16.2281 21 17.6379 20.1707 18.4206 18.8152L21.6879 13.1576C22.5539 11.6579 21.5142 9.75 19.8309 9.75H10.2285Z" fill="#28303F"/>
</svg>
