<svg width="24" height="24" viewBox="0 0 24 24" fill="none" xmlns="http://www.w3.org/2000/svg">
<rect x="0.75" y="0.75" width="22.5" height="18.7105" rx="5.25" stroke="white" stroke-opacity="0.3" stroke-width="1.5"/>
<mask id="path-2-inside-1_2250_11862" fill="white">
<path d="M0 6C0 2.68629 2.68629 0 6 0H18C21.3137 0 24 2.68629 24 6V18C24 21.3137 21.3137 24 18 24H6C2.68629 24 0 21.3137 0 18V6Z"/>
</mask>
<path d="M0 0H24H0ZM24 18C24 22.1421 20.6421 25.5 16.5 25.5H7.5C3.35786 25.5 0 22.1421 0 18C0 20.4853 2.68629 22.5 6 22.5H18C21.3137 22.5 24 20.4853 24 18ZM0 24V0V24ZM24 0V24V0Z" fill="white" fill-opacity="0.3" mask="url(#path-2-inside-1_2250_11862)"/>
<path d="M5 13.3796C5 12.9654 5.33579 12.6296 5.75 12.6296H13.7552C14.0953 12.6296 14.3506 12.9407 14.2841 13.2743V13.2743C14.2703 13.3438 14.2703 13.4154 14.2841 13.485V13.485C14.3506 13.8186 14.0953 14.1296 13.7552 14.1296H5.75C5.33579 14.1296 5 13.7939 5 13.3796V13.3796Z" fill="white" fill-opacity="0.3"/>
<ellipse cx="16.5785" cy="13.4444" rx="2.31579" ry="2.44444" fill="white" fill-opacity="0.3"/>
<path d="M18.8945 7.37939C18.8945 6.96518 18.5587 6.62939 18.1445 6.62939H10.1394C9.7992 6.62939 9.54397 6.94045 9.6104 7.27407V7.27407C9.62425 7.3436 9.62425 7.41519 9.6104 7.48472V7.48472C9.54397 7.81834 9.7992 8.12939 10.1394 8.12939H18.1445C18.5587 8.12939 18.8945 7.79361 18.8945 7.37939V7.37939Z" fill="white" fill-opacity="0.3"/>
<ellipse cx="2.31579" cy="2.44444" rx="2.31579" ry="2.44444" transform="matrix(-1 0 0 1 9.63184 5)" fill="white" fill-opacity="0.3"/>
</svg>
