<svg width="26" height="26" viewBox="0 0 26 26" fill="none" xmlns="http://www.w3.org/2000/svg">
<path d="M25 13C25 19.6274 19.6274 25 13 25M25 13C25 6.37258 19.6274 1 13 1M25 13C25 11.0118 19.6274 9.4 13 9.4C6.37258 9.4 1 11.0118 1 13M25 13C25 14.9882 19.6274 16.6 13 16.6C6.37258 16.6 1 14.9882 1 13M13 25C6.37258 25 1 19.6274 1 13M13 25C15.651 25 17.8 19.6274 17.8 13C17.8 6.37258 15.651 1 13 1M13 25C10.349 25 8.2 19.6274 8.2 13C8.2 6.37258 10.349 1 13 1M1 13C1 6.37258 6.37258 1 13 1" stroke="white" stroke-opacity="0.3" stroke-width="1.5"/>
</svg>
