<svg width="24" height="24" viewBox="0 0 24 24" fill="none" xmlns="http://www.w3.org/2000/svg">
<g clip-path="url(#clip0_2250_11908)">
<path fill-rule="evenodd" clip-rule="evenodd" d="M9.40814 3.67503C8.97683 4.76209 8.62579 6.08255 8.38859 7.56496C9.53626 7.45984 10.7488 7.40388 12 7.40388C13.2512 7.40388 14.4637 7.45984 15.6114 7.56496C15.3742 6.08255 15.0232 4.76209 14.5919 3.67503C14.1773 2.63018 13.7065 1.84632 13.2303 1.33871C12.756 0.833034 12.3399 0.663193 12 0.663193C11.6601 0.663193 11.244 0.833034 10.7697 1.33871C10.2935 1.84632 9.82269 2.63018 9.40814 3.67503ZM7.71508 2.99227C7.17692 4.34866 6.76398 5.98258 6.51089 7.7889C5.26505 7.97414 4.12812 8.2213 3.14204 8.51954C1.99468 8.86656 0.999747 9.29802 0.271307 9.81891C0.179278 9.88472 0.0884416 9.95427 5.50129e-05 10.0276C0.80411 5.01702 4.62136 1.02431 9.51706 1.51729e-06C9.49277 0.0249138 9.46869 0.0501008 9.44482 0.0755502C8.75747 0.808289 8.18049 1.81925 7.71508 2.99227ZM14.4829 0C14.5072 0.0249128 14.5313 0.0501003 14.5552 0.0755502C15.2425 0.808289 15.8195 1.81925 16.2849 2.99227C16.8231 4.34866 17.236 5.98258 17.4891 7.7889C18.7349 7.97414 19.8719 8.2213 20.858 8.51954C22.0053 8.86656 23.0002 9.29802 23.7287 9.81891C23.8207 9.88472 23.9116 9.95428 23.9999 10.0276C23.1959 5.01702 19.3786 1.02431 14.4829 0ZM24 13.972C23.9116 14.0453 23.8207 14.1149 23.7287 14.1807C23.0002 14.7016 22.0053 15.1331 20.858 15.4801C19.8719 15.7783 18.7349 16.0255 17.4891 16.2107C17.236 18.017 16.8231 19.651 16.2849 21.0073C15.8195 22.1804 15.2425 23.1913 14.5552 23.9241C14.5312 23.9496 14.507 23.975 14.4826 24C19.3786 22.9758 23.196 18.9828 24 13.972ZM9.51742 24C9.49301 23.975 9.46881 23.9496 9.44482 23.9241C8.75747 23.1913 8.18049 22.1804 7.71508 21.0073C7.17692 19.651 6.76398 18.017 6.51089 16.2107C5.26505 16.0255 4.12812 15.7783 3.14204 15.4801C1.99468 15.1331 0.999747 14.7016 0.271307 14.1807C0.179259 14.1149 0.0884038 14.0453 0 13.972C0.803956 18.9828 4.62143 22.9758 9.51742 24ZM3.66601 13.7192C4.43939 13.9531 5.32922 14.1559 6.30998 14.3186C6.25446 13.5648 6.22564 12.7897 6.22564 11.9998C6.22564 11.2099 6.25446 10.4348 6.30998 9.681C5.32922 9.84371 4.43939 10.0465 3.66601 10.2804C2.61347 10.5987 1.82812 10.9595 1.32625 11.3184C0.800696 11.6942 0.755196 11.9378 0.755196 11.9998C0.755196 12.0618 0.800696 12.3054 1.32625 12.6812C1.82812 13.0401 2.61347 13.4009 3.66601 13.7192ZM8.04912 11.9998C8.04912 12.8837 8.08735 13.7421 8.15923 14.5654C9.35793 14.6893 10.6498 14.7574 12 14.7574C13.3502 14.7574 14.6421 14.6893 15.8408 14.5654C15.9126 13.7421 15.9509 12.8837 15.9509 11.9998C15.9509 11.1159 15.9126 10.2575 15.8408 9.43422C14.6421 9.3103 13.3502 9.24225 12 9.24225C10.6498 9.24225 9.35793 9.3103 8.15923 9.43422C8.08735 10.2575 8.04912 11.1159 8.04912 11.9998ZM9.40814 20.3246C8.97683 19.2375 8.62579 17.9171 8.38859 16.4347C9.53626 16.5398 10.7488 16.5957 12 16.5957C13.2512 16.5957 14.4637 16.5398 15.6114 16.4347C15.3742 17.9171 15.0232 19.2375 14.5919 20.3246C14.1773 21.3694 13.7065 22.1533 13.2303 22.6609C12.756 23.1666 12.3399 23.3364 12 23.3364C11.6601 23.3364 11.244 23.1666 10.7697 22.6609C10.2935 22.1533 9.82269 21.3694 9.40814 20.3246ZM20.334 13.7192C19.5606 13.9531 18.6708 14.1559 17.69 14.3186C17.7455 13.5648 17.7744 12.7897 17.7744 11.9998C17.7744 11.2099 17.7455 10.4348 17.69 9.681C18.6708 9.84371 19.5606 10.0465 20.334 10.2804C21.3865 10.5987 22.1719 10.9595 22.6737 11.3184C23.1993 11.6942 23.2448 11.9378 23.2448 11.9998C23.2448 12.0618 23.1993 12.3054 22.6737 12.6812C22.1719 13.0401 21.3865 13.4009 20.334 13.7192Z" fill="#FCFCFD"/>
</g>
<defs>
<clipPath id="clip0_2250_11908">
<rect width="24" height="24" fill="white"/>
</clipPath>
</defs>
</svg>
